<?xml version='1.0' encoding='utf-8'?>
<svg version="1.1" xmlns="http://www.w3.org/2000/svg" viewBox="0 0 129 129" xmlns:xlink="http://www.w3.org/1999/xlink" enable-background="new 0 0 129 129">
  <g>
    <g>
      <path d="m109.1,36.8c-0.3-2-2-3.4-4-3.4h-23v-9.4c0-9.7-7.9-17.6-17.6-17.6-9.7,0-17.6,7.9-17.6,17.6v9.4h-23c-2,0-3.7,1.4-4,3.4l-13.4,81c-0.2,1.2 0.1,2.4 0.9,3.3 0.8,0.9 1.9,1.4 3.1,1.4h108c0,0 0,0 0.1,0 2.3,0 4.1-1.8 4.1-4.1 0-0.5-0.1-0.9-0.2-1.3l-13.4-80.3zm-54-12.8c0-5.2 4.2-9.4 9.4-9.4s9.4,4.2 9.4,9.4v9.4h-18.8v-9.4zm-39.8,90.4l12.1-72.8h19.5v22.9c0,2.3 1.8,4.1 4.1,4.1 2.3,0 4.1-1.8 4.1-4.1v-22.9h18.8v22.9c0,2.3 1.8,4.1 4.1,4.1 2.3,0 4.1-1.8 4.1-4.1v-22.9h19.5l12.1,72.8h-98.4z"/>
    </g>
  </g>
</svg>
