<?xml version='1.0' encoding='utf-8'?>
<svg version="1.1" xmlns="http://www.w3.org/2000/svg" viewBox="0 0 129 129" xmlns:xlink="http://www.w3.org/1999/xlink" enable-background="new 0 0 129 129">
  <g>
    <g>
      <path d="M50.2,39.9c-2.3,0-4.1,1.8-4.1,4.1v41.5c0,2.3,1.8,4.1,4.1,4.1c2.3,0,4.1-1.8,4.1-4.1V44C54.3,41.7,52.4,39.9,50.2,39.9z"/>
      <path d="m30.4,39.9c-2.3,0-4.1,1.8-4.1,4.1v41.5c0,2.3 1.8,4.1 4.1,4.1s4.1-1.8 4.1-4.1v-41.5c0-2.3-1.9-4.1-4.1-4.1z"/>
      <path d="m10.5,105h86.7c2.3,0 4.1-1.8 4.1-4.1v-17.4h17.2c2.3,0 4.1-1.8 4.1-4.1v-30c0-2.3-1.8-4.1-4.1-4.1h-17.2v-17.2c0-2.3-1.8-4.1-4.1-4.1h-86.7c-2.3,0-4.1,1.8-4.1,4.1v72.8c0,2.2 1.9,4.1 4.1,4.1zm90.8-51.5h13.1v21.9h-13.1v-21.9zm-86.7-21.3h78.5v17.2 30 17.4h-78.5v-64.6z"/>
    </g>
  </g>
</svg>
