<?xml version='1.0' encoding='utf-8'?>
<svg version="1.1" xmlns="http://www.w3.org/2000/svg" viewBox="0 0 129 129" xmlns:xlink="http://www.w3.org/1999/xlink" enable-background="new 0 0 129 129">
  <g>
    <g>
      <path d="m82.2,37.9c0-17.2-14-31.3-31.3-31.3s-31.3,14-31.3,31.3 14,31.3 31.3,31.3 31.3-14.1 31.3-31.3zm-54.3,0c0-12.7 10.3-23 23-23s23,10.3 23,23-10.3,23-23,23-23-10.3-23-23z"/>
      <path d="m93.7,49.4c-8.6,0-15.6,7-15.6,15.6 0,6.2 3.6,11.5 8.8,14.1-3.4,8.8-9.9,16-18.3,20.3v-0.5c0-2.3-1.8-4.1-4.1-4.1h-27.2c-2.3,0-4.1,1.8-4.1,4.1v19.4c0,2.3 1.8,4.1 4.1,4.1h27.2c2.3,0 4.1-1.8 4.1-4.1v-9.8c12.5-5.1 22.1-15.2 26.6-27.9 7.9-0.7 14.2-7.4 14.2-15.6-0.1-8.6-7.1-15.6-15.7-15.6zm-33.3,55.7c-0.1,0.4-0.1,0.8 0,1.2v7.9h-18.9v-11.2h18.9v2.1zm33.3-32.7c-4.1,0-7.4-3.3-7.4-7.4s3.3-7.4 7.4-7.4 7.4,3.3 7.4,7.4-3.3,7.4-7.4,7.4z"/>
    </g>
  </g>
</svg>
