<?xml version="1.0" encoding="iso-8859-1"?>
<!-- Generator: Adobe Illustrator 18.0.0, SVG Export Plug-In . SVG Version: 6.00 Build 0)  -->
<!DOCTYPE svg PUBLIC "-//W3C//DTD SVG 1.1//EN" "http://www.w3.org/Graphics/SVG/1.1/DTD/svg11.dtd">
<svg version="1.1" id="Capa_1" xmlns="http://www.w3.org/2000/svg" xmlns:xlink="http://www.w3.org/1999/xlink" x="0px" y="0px"
	 viewBox="0 0 350 350" style="enable-background:new 0 0 350 350;" xml:space="preserve">
<g>
	<path d="M253.979,0H96.021c-30.542,0-55.39,24.848-55.39,55.39v53.938v0.157v61.477v0.163v61.633c0,0.019,0.002,0.037,0.002,0.055
		h-0.002v61.797c0,30.542,24.848,55.39,55.39,55.39h157.957c30.542,0,55.39-24.848,55.39-55.39v-61.797h-0.001
		c0-0.019,0.001-0.037,0.001-0.055v-61.633v-0.163v-61.477v-0.157V55.39C309.369,24.848,284.521,0,253.979,0z M115.24,38.752
		C131.35,28.264,152.573,22.487,175,22.487s43.65,5.776,59.76,16.265c17.436,11.352,27.038,26.884,27.038,43.735
		s-9.602,32.384-27.038,43.735c-16.109,10.488-37.333,16.265-59.76,16.265s-43.65-5.776-59.76-16.265
		c-17.436-11.352-27.038-26.884-27.038-43.735S97.805,50.104,115.24,38.752z M289.369,294.61c0,19.514-15.876,35.39-35.39,35.39
		H96.021c-19.514,0-35.39-15.875-35.39-35.39v-19.218c9.604,7.996,21.945,12.811,35.39,12.811h157.957
		c13.444,0,25.786-4.815,35.39-12.811V294.61z M289.369,232.758c0,19.514-15.876,35.39-35.39,35.39H96.021
		c-19.514,0-35.39-15.876-35.39-35.39v-19.061c9.604,7.998,21.943,12.818,35.39,12.818h157.957c13.446,0,25.786-4.82,35.39-12.818
		V232.758z M289.369,170.962c0,19.514-15.876,35.39-35.39,35.39H96.021c-19.514,0-35.39-15.876-35.39-35.39v-18.905
		c9.604,7.998,21.943,12.817,35.39,12.817h157.957c13.446,0,25.786-4.82,35.39-12.817V170.962z"/>
	<path d="M175,62.487c-16.939,0-30.719,8.972-30.719,20s13.781,20,30.719,20s30.719-8.972,30.719-20S191.939,62.487,175,62.487z"/>
</g>
<g>
</g>
<g>
</g>
<g>
</g>
<g>
</g>
<g>
</g>
<g>
</g>
<g>
</g>
<g>
</g>
<g>
</g>
<g>
</g>
<g>
</g>
<g>
</g>
<g>
</g>
<g>
</g>
<g>
</g>
</svg>
