<?xml version="1.0"?>
<svg xmlns="http://www.w3.org/2000/svg" viewBox="0 0 24 24" width="96px" height="96px">
    <path d="M 12 2 C 6.477 2 2 6.477 2 12 C 2 17.523 6.477 22 12 22 C 17.523 22 22 17.523 22 12 C 22 6.477 17.523 2 12 2 z M 11.392578 5.1269531 L 12.691406 5.1269531 L 12.691406 7.0410156 C 13.060406 7.0600156 13.407844 7.1025 13.714844 7.1875 C 14.108844 7.2965 14.441844 7.4644531 14.714844 7.6894531 C 14.987844 7.9164531 15.196797 8.1990156 15.341797 8.5410156 C 15.484797 8.8830156 15.556641 9.2869531 15.556641 9.7519531 C 15.556641 9.9799531 15.533375 10.19625 15.484375 10.40625 C 15.437375 10.61625 15.361766 10.811141 15.259766 10.994141 C 15.155766 11.177141 15.026187 11.343234 14.867188 11.490234 C 14.711187 11.638234 14.522687 11.760469 14.304688 11.855469 C 14.559688 11.928469 14.776125 12.0405 14.953125 12.1875 C 15.131125 12.3355 15.274766 12.506125 15.384766 12.703125 C 15.494766 12.900125 15.573047 13.11275 15.623047 13.34375 C 15.673047 13.57275 15.699219 13.809781 15.699219 14.050781 C 15.699219 15.016781 15.433344 15.746281 14.902344 16.238281 C 14.389344 16.714281 13.649406 16.954703 12.691406 16.970703 L 12.691406 18.822266 L 11.392578 18.822266 L 11.392578 16.976562 L 9.3007812 16.976562 L 9.3007812 7.0234375 L 11.392578 7.0234375 L 11.392578 5.1269531 z M 11.310547 8.6972656 L 11.310547 11.185547 L 12.357422 11.185547 C 12.758422 11.186547 13.054047 11.083 13.248047 10.875 C 13.441047 10.668 13.539062 10.363891 13.539062 9.9628906 C 13.539062 9.5118906 13.447625 9.1891875 13.265625 8.9921875 C 13.083625 8.7951875 12.786953 8.6972656 12.376953 8.6972656 L 11.310547 8.6972656 z M 11.310547 12.648438 L 11.310547 15.308594 L 12.595703 15.308594 C 12.791703 15.308594 12.957656 15.276891 13.097656 15.212891 C 13.236656 15.149891 13.349453 15.057406 13.439453 14.941406 C 13.527453 14.824406 13.593766 14.690156 13.634766 14.535156 C 13.675766 14.380156 13.695312 14.208484 13.695312 14.021484 C 13.695312 13.597484 13.618938 13.263578 13.460938 13.017578 C 13.304938 12.772578 13.038063 12.648438 12.664062 12.648438 L 11.310547 12.648438 z"/>
</svg>
