<?xml version='1.0' encoding='utf-8'?>
<svg version="1.1" xmlns="http://www.w3.org/2000/svg" viewBox="0 0 129 129" xmlns:xlink="http://www.w3.org/1999/xlink" enable-background="new 0 0 129 129">
  <g>
    <path d="m122.9,37.2c0-1.6-0.9-3-2.3-3.7l-54.3-27.1c-1.3-0.6-2.8-0.6-4,0.2-1.2,0.7-1.9,2.1-1.9,3.5v47.6l-48.3-24.2c-2-1-4.5-0.2-5.5,1.8-1,2-0.2,4.5 1.8,5.5l46.9,23.4-46.9,23.6c-2,1-2.9,3.5-1.8,5.5 0.7,1.4 2.2,2.3 3.7,2.3 0.6,0 1.2-0.1 1.8-0.4l48.3-24.2v47.6c0,1.4 0.7,2.7 1.9,3.5 0.7,0.4 1.4,0.6 2.2,0.6 0.6,0 1.3-0.1 1.8-0.4l54.3-27.1c1.4-0.7 2.3-2.1 2.3-3.7s-0.9-3-2.3-3.7l-46.9-23.5 46.9-23.4c1.4-0.7 2.3-2.1 2.3-3.7zm-54.3,74.7v-40.9l41,20.5-41,20.4zm0-54.2v-41l41,20.5-41,20.5z"/>
  </g>
</svg>
