<?xml version='1.0' encoding='utf-8'?>
<svg version="1.1" xmlns="http://www.w3.org/2000/svg" viewBox="0 0 129 129" xmlns:xlink="http://www.w3.org/1999/xlink" enable-background="new 0 0 129 129">
  <g>
    <path d="m10.5,113.2h107.9c2.3,0 4.1-1.8 4.1-4.1v-72.8c0-2.3-1.8-4.1-4.1-4.1h-31.3v-12.3c0-2.3-1.8-4.1-4.1-4.1h-37c-2.3,0-4.1,1.8-4.1,4.1v12.4h-31.4c-2.3,0-4.1,1.8-4.1,4.1v72.8c0.1,2.2 1.9,4 4.1,4zm39.6-89.2h28.8v8.3h-28.8v-8.3zm-35.5,16.4h30.4c0.3,0.1 0.6,0.1 0.9,0.1 0.3,0 0.6,0 0.9-0.1h35.2c0.3,0.1 0.6,0.1 0.9,0.1 0.3,0 0.6,0 0.9-0.1h30.4v28.2h-27.1v-4.9c0-2.3-1.8-4.1-4.1-4.1-2.3,0-4.1,1.8-4.1,4.1v4.9h-28.8v-4.9c0-2.3-1.8-4.1-4.1-4.1s-4.1,1.8-4.1,4.1v4.9h-27.3v-28.2zm-0,36.4h27.3v4.6c0,2.3 1.8,4.1 4.1,4.1s4.1-1.8 4.1-4.1v-4.6h28.8v4.6c0,2.3 1.8,4.1 4.1,4.1 2.3,0 4.1-1.8 4.1-4.1v-4.6h27.3v28.2h-99.8v-28.2z"/>
  </g>
</svg>
