<?xml version='1.0' encoding='utf-8'?>
<svg version="1.1" xmlns="http://www.w3.org/2000/svg" viewBox="0 0 129 129" xmlns:xlink="http://www.w3.org/1999/xlink" enable-background="new 0 0 129 129">
  <g>
    <g>
      <path d="M64.5,122.3c32,0,57.9-26,57.9-57.9c0-32-26-57.9-57.9-57.9S6.6,32.4,6.6,64.4C6.6,96.3,32.5,122.3,64.5,122.3z     M64.5,14.6c27.5,0,49.8,22.3,49.8,49.8c0,27.5-22.3,49.8-49.8,49.8S14.7,91.8,14.7,64.4C14.7,36.9,37,14.6,64.5,14.6z"/>
      <path d="m61.8,71.2h19.3c2.3,0 4.1-1.8 4.1-4.1 0-2.3-1.8-4.1-4.1-4.1h-15.2v-23.8c0-2.3-1.8-4.1-4.1-4.1s-4.1,1.8-4.1,4.1v27.9c0,2.3 1.8,4.1 4.1,4.1z"/>
    </g>
  </g>
</svg>
