<?xml version='1.0' encoding='utf-8'?>
<svg version="1.1" xmlns="http://www.w3.org/2000/svg" viewBox="0 0 129 129" xmlns:xlink="http://www.w3.org/1999/xlink" enable-background="new 0 0 129 129">
  <g>
    <path d="m81.8,23.6c-19.8,0-36.3,13.9-40,32.8-3.4-1.4-7.2-2.1-11-1.9-13.5,0.6-24.2,12.1-24.2,26.2-1.77636e-15,13.6 11.1,24.7 24.7,24.7h52.4c21.4,0 38.9-17.4 38.9-38.9 0-0.1 0-0.2 0-0.3 0-0.6 0.1-1.1 0.1-1.7 1.42109e-14-22.6-18.4-40.9-40.9-40.9zm32.6,42v0.7c0,0.3 0,0.5 0,0.8-0.3,16.7-14,30.1-30.7,30.1h-52.4c-9.1,0-16.5-7.4-16.5-16.5 0-9.5 7.4-17.6 16.4-18 0.3,0 0.6,0 0.8,0 3.9,0 7.5,1.3 10.6,3.6 1.2,0.9 2.8,1.1 4.2,0.5 1.4-0.6 2.3-2 2.4-3.5 0.7-17.6 15-31.4 32.6-31.4 18,0 32.7,14.7 32.7,32.7-1.42109e-14,0.3-1.42109e-14,0.6-0.1,1z"/>
  </g>
</svg>
