<?xml version='1.0' encoding='utf-8'?>
<svg version="1.1" xmlns="http://www.w3.org/2000/svg" viewBox="0 0 129 129" xmlns:xlink="http://www.w3.org/1999/xlink" enable-background="new 0 0 129 129">
  <g>
    <g>
      <path d="m42.6,6.4c-8.9,0-15.9,9-15.9,20.6 0,9.5 4.8,17.4 11.5,19.8v71.4c0,2.4 2,4.4 4.4,4.4 2.4,0 4.4-2 4.4-4.4v-71.4c6.7-2.4 11.5-10.2 11.5-19.8 0-11.5-7-20.6-15.9-20.6zm0,32.3c-3.3,0-7.1-4.8-7.1-11.7 0-6.9 3.7-11.7 7.1-11.7 3.3,0 7.1,4.8 7.1,11.7-0.1,6.9-3.8,11.7-7.1,11.7z"/>
      <path d="m97.9,6.4c-2.4,0-4.4,2-4.4,4.4v27.7h-2.7v-27.7c0-2.4-2-4.4-4.4-4.4s-4.4,2-4.4,4.4v27.7h-2.6v-27.7c0-2.4-2-4.4-4.4-4.4s-4.4,2-4.4,4.4v32.1c0,2.4 2,4.4 4.4,4.4h7v70.8c0,2.4 2,4.4 4.4,4.4s4.4-2 4.4-4.4v-70.7h7.1c2.4-7.10543e-15 4.4-2 4.4-4.4v-32.2c0.1-2.4-1.9-4.4-4.4-4.4z"/>
    </g>
  </g>
</svg>
