<?xml version='1.0' encoding='utf-8'?>
<svg version="1.1" xmlns="http://www.w3.org/2000/svg" viewBox="0 0 129 129" xmlns:xlink="http://www.w3.org/1999/xlink" enable-background="new 0 0 129 129">
  <g>
    <g>
      <path d="m61.5,107.1c0.4,0.4 0.9,0.7 1.4,0.9 0,0 0,0 0.1,0 0.5,0.2 1,0.3 1.6,0.3s1.1-0.1 1.6-0.3c0,0 0,0 0.1,0 0.5-0.2 1-0.5 1.4-0.9l56.9-56.9c1.7-1.7 1.7-4.4 0-6.1-1.7-1.7-4.4-1.7-6.1,0l-49.7,49.5v-82.8c0-2.4-1.9-4.3-4.3-4.3-2.4,0-4.3,1.9-4.3,4.3v82.9l-49.5-49.6c-1.7-1.7-4.4-1.7-6.1,0-1.7,1.7-1.7,4.4 0,6.1l56.9,56.9z"/>
      <path d="m7.6,122.6h113.8c2.4,0 4.3-1.9 4.3-4.3 0-2.4-1.9-4.3-4.3-4.3h-113.8c-2.4,0-4.3,1.9-4.3,4.3 0,2.3 1.9,4.3 4.3,4.3z"/>
    </g>
  </g>
</svg>
