<?xml version='1.0' encoding='utf-8'?>
<svg version="1.1" xmlns="http://www.w3.org/2000/svg" viewBox="0 0 129 129" xmlns:xlink="http://www.w3.org/1999/xlink" enable-background="new 0 0 129 129">
  <g>
    <path d="m122.7,56c-0.3-1.4-1.4-2.5-2.7-3l-33.7-11.3-18-33.1c-0.7-1.4-2.2-2.2-3.7-2.2-1.5,0-3,0.8-3.7,2.2l-17.9,33-33.8,10.2c-1.4,0.4-2.5,1.5-2.8,2.9-0.4,1.4 0,2.9 1,4l22.2,24.3-9.2,34.3c-0.4,1.5 0.1,3.2 1.3,4.2 1.2,1.1 2.9,1.4 4.3,0.8l38.6-15.4 38.6,15.4c0.5,0.2 1,0.3 1.6,0.3 1,0 2-0.4 2.8-1.1 1.2-1.1 1.7-2.7 1.3-4.2l-9.2-34.3 22-23.1c0.9-1.1 1.3-2.5 1-3.9zm-30.7,22.9c-1,1.1-1.4,2.6-1,4l7.7,28.4-32.5-12.8c-0.5-0.2-1-0.3-1.6-0.3-0.5,0-1.1,0.1-1.6,0.3l-32.4,12.9 7.7-28.4c0.4-1.4 0-2.9-1-3.9l-19.3-21.2 29.1-8.7c1.1-0.3 2-1 2.5-2l15-27.7 15,27.7c0.5,0.9 1.3,1.6 2.4,2l29,9.7-19,20z"/>
  </g>
</svg>
