<?xml version='1.0' encoding='utf-8'?>
<svg version="1.1" xmlns="http://www.w3.org/2000/svg" viewBox="0 0 129 129" xmlns:xlink="http://www.w3.org/1999/xlink" enable-background="new 0 0 129 129">
  <g>
    <g>
      <path d="m18.7,122.5h91.6c2.3,0 4.1-1.8 4.1-4.1v-107.9c0-2.3-1.8-4.1-4.1-4.1h-68.7c-0.3,0-0.7,0-1,0.1-0.1,0-0.2,0.1-0.2,0.1-0.3,0.1-0.5,0.2-0.8,0.3-0.1,0.1-0.2,0.1-0.3,0.2-0.3,0.2-0.6,0.4-0.8,0.7l-22.9,27c-0.3,0.3-0.5,0.7-0.7,1.1-0.1,0.1-0.1,0.3-0.1,0.4-0.1,0.3-0.1,0.6-0.2,0.9 0,0.1 0,0.1 0,0.2v80.9c-1.06581e-14,2.4 1.9,4.2 4.1,4.2zm18.8-100.8v11.8h-10l10-11.8zm-14.7,19.9h18.8c2.3,0 4.1-1.8 4.1-4.1v-22.9h60.5v99.7h-83.4v-72.7z"/>
      <path d="m94,50.5h-59c-2.3,0-4.1,1.8-4.1,4.1 0,2.3 1.8,4.1 4.1,4.1h59c2.3,0 4.1-1.8 4.1-4.1 0-2.3-1.8-4.1-4.1-4.1z"/>
      <path d="m94,70.3h-59c-2.3,0-4.1,1.8-4.1,4.1 0,2.3 1.8,4.1 4.1,4.1h59c2.3,0 4.1-1.8 4.1-4.1 0-2.2-1.8-4.1-4.1-4.1z"/>
    </g>
  </g>
</svg>
