<?xml version='1.0' encoding='utf-8'?>
<svg version="1.1" xmlns="http://www.w3.org/2000/svg" viewBox="0 0 129 129" xmlns:xlink="http://www.w3.org/1999/xlink" enable-background="new 0 0 129 129">
  <g>
    <path d="m61.8,94.8c0.5,0.2 1,0.3 1.6,0.3 1.1,0 2.1-0.4 2.9-1.2l26.5-26.5c0.8-0.8 1.2-1.8 1.2-2.9s-0.4-2.1-1.2-2.9l-26.6-26.5c-1.2-1.2-2.9-1.5-4.5-0.9-1.5,0.6-2.5,2.1-2.5,3.8v14.3l-17.1-17.2c-1.2-1.2-2.9-1.5-4.5-0.9-1.5,0.6-2.5,2.1-2.5,3.8v53c0,1.7 1,3.2 2.5,3.8 0.5,0.2 1,0.3 1.6,0.3 1.1,0 2.1-0.4 2.9-1.2l17.2-17.2v14.3c-0.1,1.6 0.9,3.1 2.5,3.8zm5.7-28v-4.6-14.3l16.5,16.6-16.5,16.6v-14.3zm-24.2,14.3v-33.2l16,16v1.2l-16,16z"/>
  </g>
</svg>
