<?xml version='1.0' encoding='utf-8'?>
<svg version="1.1" xmlns="http://www.w3.org/2000/svg" viewBox="0 0 129 129" xmlns:xlink="http://www.w3.org/1999/xlink" enable-background="new 0 0 129 129">
  <g>
    <g>
      <circle cx="76" cy="42.4" r="6.6"/>
      <path d="m6.4,119.5c0,0 0,0.1 0,0 0,0.1 0,0.1 0.1,0.1 0.1,0.2 0.2,0.5 0.3,0.7 0,0.1 0.1,0.1 0.1,0.2 0,0.1 0.1,0.1 0.1,0.2 0,0 0.1,0.1 0.1,0.1 0.1,0.2 0.3,0.3 0.4,0.5 0,0 0.1,0.1 0.1,0.1 0.1,0.1 0.1,0.1 0.2,0.2 0.1,0 0.1,0.1 0.1,0.1 0.1,0.1 0.2,0.1 0.3,0.2 0,0 0.1,0.1 0.1,0.1 0,0 0.1,0 0.1,0.1 0.1,0.1 0.3,0.1 0.4,0.2 0.1,0 0.1,0 0.2,0.1 0.1,0 0.2,0.1 0.2,0.1 0.3,0.1 0.6,0.1 0.9,0.1h108.2c2.3,0 4.1-1.8 4.1-4.1v-27-80.9c0-2.3-1.8-4.1-4.1-4.1h-107.9c-2.3,0-4.1,1.8-4.1,4.1v80.7 27c0,0.3 0.1,0.7 0.1,1 0,0.1 0,0.2 0,0.2zm108.1-5.2h-90.4l66.8-43.7 23.6,22.5v21.2zm-100-99.6h100v67.1l-20.3-19.4c-1.4-1.3-3.5-1.5-5.1-0.5l-19.1,12.6-13.3-13.4c-1.4-1.4-3.5-1.6-5.1-0.6l-37.1,23.4v-69.2zm0,78.9l38.7-24.4 9.8,9.9-48.5,31.7v-17.2z"/>
    </g>
  </g>
</svg>
