<?xml version='1.0' encoding='utf-8'?>
<svg version="1.1" xmlns="http://www.w3.org/2000/svg" viewBox="0 0 129 129" xmlns:xlink="http://www.w3.org/1999/xlink" enable-background="new 0 0 129 129">
  <g>
    <g>
      <path d="m82.1,32.8h-13.8v-13.4c0-2.3-1.8-4.1-4.1-4.1-2.3,0-4.1,1.8-4.1,4.1v13.4h-13.2c-22.3,0-40.5,18.1-40.5,40.4 0,22.3 18.1,40.5 40.4,40.5l35.2,.1c22.3,0 40.5-18.1 40.5-40.4 0.1-22.4-18-40.6-40.4-40.6zm-.1,72.8l-35.2-.1c-17.8,0-32.3-14.5-32.2-32.4 0-17.8 14.5-32.3 32.4-32.2l35.1,.1c17.8,0 32.3,14.5 32.2,32.3s-14.5,32.3-32.3,32.3z"/>
      <path d="m46,69.3h-4.7v-4.7c0-2.3-1.8-4.1-4.1-4.1s-4.1,1.8-4.1,4.1v4.7h-4.7c-2.3,0-4.1,1.8-4.1,4.1 0,2.3 1.8,4.1 4.1,4.1h4.7v4.7c0,2.3 1.8,4.1 4.1,4.1 2.3,0 4.1-1.8 4.1-4.1v-4.7h4.7c2.3,0 4.1-1.8 4.1-4.1-7.10543e-15-2.3-1.8-4.1-4.1-4.1z"/>
      <circle cx="84.6" cy="66.7" r="6.6"/>
      <circle cx="97.8" cy="79.9" r="6.6"/>
    </g>
  </g>
</svg>
