<?xml version="1.0" encoding="iso-8859-1"?>
<!-- Generator: Adobe Illustrator 18.0.0, SVG Export Plug-In . SVG Version: 6.00 Build 0)  -->
<!DOCTYPE svg PUBLIC "-//W3C//DTD SVG 1.1//EN" "http://www.w3.org/Graphics/SVG/1.1/DTD/svg11.dtd">
<svg version="1.1" id="Capa_1" xmlns="http://www.w3.org/2000/svg" xmlns:xlink="http://www.w3.org/1999/xlink" x="0px" y="0px"
	 viewBox="0 0 280 280" style="enable-background:new 0 0 280 280;" xml:space="preserve">
<path d="M258.919,213.897c-14.464-29.244-33.785-57.213-53.916-82.187c2.913-11.34,5.439-22.108,7.635-32.194
	c9.816-0.903,17.828-8.067,20.032-17.453c10.895-1.455,22.007-2.499,33.285-3.043C274.947,97.49,280,118.217,280,140.102
	C280,167.167,272.272,192.457,258.919,213.897z M210.939,19.452c-0.633,6.155-2.052,18.339-4.798,35.098
	c-9.919,1.95-17.524,10.363-18.274,20.655c-9.219,2.139-18.202,4.503-26.911,7.037c-3.934-4.034-7.78-7.895-11.496-11.553
	c-7.995-7.869-15.755-15.184-23.078-21.875c1.223-2.789,1.911-5.862,1.911-9.098c0-3.859-0.972-7.494-2.676-10.682
	c7.804-10.228,16.523-19.81,26.234-28.424C173.273,2.414,193.335,9.061,210.939,19.452z M114.698,18.903
	c-2.806-1.24-5.9-1.941-9.159-1.941c-4.359,0-8.422,1.254-11.886,3.388c-3.915-3.233-7.361-6.018-10.224-8.295
	c14.59-6.472,30.482-10.517,47.166-11.629C124.933,6.302,119.648,12.49,114.698,18.903z M105.539,62.471
	c3.874,0,7.521-0.977,10.717-2.692c8.968,8.21,18.636,17.402,28.609,27.422c-23.364,7.604-44.398,16.191-62.249,24.4
	c5.726-16.266,12.822-33.014,21.587-49.198C104.647,62.429,105.087,62.471,105.539,62.471z M54.778,154.401
	c-0.871,3.743-1.685,7.433-2.447,11.064c-2.936-6.116-5.543-12.018-7.866-17.658c4.348-2.461,8.962-5.004,13.849-7.601
	C57.024,145.068,55.846,149.815,54.778,154.401z M59.514,212.894c0.8-0.072,1.59-0.182,2.365-0.335
	c14.313,21.876,32.603,44.494,55.921,65.776c-22.839-3.654-43.853-12.845-61.611-26.159
	C56.434,245.801,57.198,231.655,59.514,212.894z M74.706,205.043c3.423-3.982,5.506-9.147,5.506-14.798
	c0-9.268-5.577-17.245-13.544-20.789c0.817-3.936,1.695-7.939,2.643-11.999c1.949-8.351,4.272-17.238,7.008-26.434
	c1.108-0.542,2.216-1.084,3.344-1.627c20.844-10.032,47.032-21.08,76.788-30.307c10.762,11.277,21.683,23.408,32.285,36.206
	c-11.116,41.772-27.46,90.688-51.298,140.512C110.692,253.248,90.259,228.701,74.706,205.043z M172.548,94.392
	c6.243-1.712,12.62-3.329,19.114-4.83c1.727,2.562,3.972,4.739,6.569,6.417c-1.493,6.878-3.145,14.085-4.975,21.585
	C186.302,109.425,179.347,101.677,172.548,94.392z M257.858,64.615c-9.026,0.605-17.938,1.51-26.71,2.673
	c-2.151-4.608-5.792-8.377-10.311-10.684c1.886-11.533,3.159-20.947,3.987-27.8C237.802,38.72,249.006,50.842,257.858,64.615z
	 M68.917,19.536c3.294,2.563,8.565,6.739,15.299,12.315c-0.909,2.455-1.431,5.097-1.431,7.864c0,6.745,2.966,12.796,7.644,16.967
	c-11.34,21.188-19.93,43.174-26.427,63.869c-9.062,4.547-17.399,9.009-24.951,13.243c-12.46-34.568-15.879-61.591-16.667-69.547
	C34.205,45.982,50.162,30.637,68.917,19.536z M10.667,86.521c2.616,13.849,7.243,32.885,15.333,54.808
	c-10.636,6.325-19.058,11.797-24.962,15.795C0.357,151.543,0,145.864,0,140.102C0,121.132,3.8,103.035,10.667,86.521z
	 M3.955,173.167c4.912-3.456,14.371-9.878,27.566-17.81c2.64,6.306,5.627,12.917,8.994,19.752c-3.6,4.026-5.811,9.321-5.811,15.136
	c0,7.937,4.091,14.927,10.268,19.001c-1.57,12.343-2.484,22.82-3.014,30.691C23.625,221.93,10.217,198.932,3.955,173.167z
	 M152.09,279.574c21.642-45.704,37.12-90.583,48.122-129.988c19,24.447,36.295,50.906,48.87,78.165
	C225.773,256.7,191.206,276.212,152.09,279.574z"/>
<g>
</g>
<g>
</g>
<g>
</g>
<g>
</g>
<g>
</g>
<g>
</g>
<g>
</g>
<g>
</g>
<g>
</g>
<g>
</g>
<g>
</g>
<g>
</g>
<g>
</g>
<g>
</g>
<g>
</g>
</svg>
