<?xml version="1.0" encoding="iso-8859-1"?>
<!-- Generator: Adobe Illustrator 19.0.0, SVG Export Plug-In . SVG Version: 6.00 Build 0)  -->
<svg version="1.1" id="Layer_1" xmlns="http://www.w3.org/2000/svg" xmlns:xlink="http://www.w3.org/1999/xlink" x="0px" y="0px"
	 viewBox="0 0 512 512" style="enable-background:new 0 0 512 512;" xml:space="preserve">
<g>
	<g>
		<g>
			<path d="M256,95.76c17.707,0,32-14.293,32-32c0-13.653-16.213-38.613-23.253-48.747c-4.053-5.76-13.547-5.76-17.6,0
				c-6.933,10.133-23.253,35.093-23.253,48.747C224,81.36,238.293,95.76,256,95.76z M256,40.827
				c6.187,10.347,10.56,19.627,10.667,22.933c0,5.867-4.8,10.667-10.667,10.667c-5.867,0-10.667-4.8-10.667-10.667
				C245.44,60.453,249.813,51.173,256,40.827z"/>
			<path d="M362.667,85.093c11.733,0,21.333-9.6,21.333-21.333c0-7.68-6.827-19.093-12.587-27.413c-3.947-5.76-13.547-5.76-17.6,0
				c-5.653,8.32-12.48,19.733-12.48,27.413C341.333,75.493,350.933,85.093,362.667,85.093z"/>
			<path d="M426.667,85.093c11.733,0,21.333-9.6,21.333-21.333c0-7.68-6.827-19.093-12.587-27.413c-3.947-5.76-13.547-5.76-17.6,0
				c-5.653,8.32-12.48,19.733-12.48,27.413C405.333,75.493,414.933,85.093,426.667,85.093z"/>
			<path d="M499.413,36.347c-3.947-5.76-13.547-5.76-17.6,0c-5.653,8.32-12.48,19.733-12.48,27.413
				c0,11.733,9.6,21.333,21.333,21.333S512,75.493,512,63.76C512,56.08,505.173,44.667,499.413,36.347z"/>
			<path d="M42.667,63.76c0-7.573-6.827-19.093-12.587-27.413c-3.947-5.76-13.547-5.76-17.6,0C6.827,44.667,0,56.08,0,63.76
				c0,11.733,9.6,21.333,21.333,21.333S42.667,75.493,42.667,63.76z"/>
			<path d="M85.333,85.093c11.733,0,21.333-9.6,21.333-21.333c0-7.68-6.827-19.093-12.587-27.413c-3.947-5.76-13.547-5.76-17.493,0
				C70.827,44.667,64,56.08,64,63.76C64,75.493,73.6,85.093,85.333,85.093z"/>
			<path d="M149.333,85.093c11.733,0,21.333-9.6,21.333-21.333c0-7.68-6.827-19.093-12.587-27.413c-3.947-5.76-13.547-5.76-17.493,0
				C134.827,44.667,128,56.08,128,63.76C128,75.493,137.6,85.093,149.333,85.093z"/>
			<path d="M492.16,106.64c-6.613-0.96-12.16,4.16-12.16,10.56c0,119.893-94.827,217.813-213.333,223.467V298
				c94.933-5.547,170.453-84.267,170.667-180.48c0-5.333-3.84-10.133-9.173-10.88c-6.613-0.96-12.16,4.16-12.16,10.56
				c0,84.587-66.133,153.92-149.333,159.467V234c62.613-5.227,111.893-55.467,112-116.587c0-5.333-3.84-10.133-9.173-10.773
				c-6.507-0.853-12.16,4.16-12.16,10.56c0,49.493-39.787,90.347-90.667,95.467v-95.04c0-5.333-3.84-10.133-9.067-10.88
				c-6.613-0.96-12.267,4.16-12.267,10.56v95.467c-50.773-5.013-90.56-45.867-90.667-95.253c0-5.44-4.16-10.24-9.6-10.773
				c-6.4-0.64-11.733,4.373-11.733,10.667c0,61.227,49.387,111.573,112,116.8v42.667C162.24,271.333,96.213,202.213,96,117.733
				c0-5.333-3.733-10.133-9.067-10.88C80.32,105.68,74.667,110.8,74.667,117.2c0,96.427,75.627,175.253,170.667,180.8v42.667
				C126.933,335.013,32.213,237.307,32,117.52c0-5.333-3.733-10.133-9.067-10.88c-6.613-0.96-12.267,4.16-12.267,10.56
				c0,131.733,104.32,239.467,234.667,245.12v74.88h-120.64c-9.92,0-18.027,8.107-18.027,18.027v31.04
				c0,8.32,6.72,14.933,15.04,15.04h265.707c9.92,0,18.027-8.107,18.027-18.027V453.2c0-8.853-7.147-16-16-16H266.667v-74.987
				C396.907,356.56,501.12,249.04,501.333,117.52C501.333,112.187,497.493,107.387,492.16,106.64z M384,458.533v21.333H128v-21.333
				H384z"/>
		</g>
	</g>
</g>
<g>
</g>
<g>
</g>
<g>
</g>
<g>
</g>
<g>
</g>
<g>
</g>
<g>
</g>
<g>
</g>
<g>
</g>
<g>
</g>
<g>
</g>
<g>
</g>
<g>
</g>
<g>
</g>
<g>
</g>
</svg>
