<?xml version='1.0' encoding='utf-8'?>
<svg version="1.1" xmlns="http://www.w3.org/2000/svg" viewBox="0 0 129 129" xmlns:xlink="http://www.w3.org/1999/xlink" enable-background="new 0 0 129 129">
  <g>
    <path d="m64.5,6.4c-31.9,0-57.9,26-57.9,57.9v4.6 9 39.9c0,2.3 1.8,4.1 4.1,4.1h21.1c2.3,0 4.1-1.8 4.1-4.1v-48.9c0-2.3-1.8-4.1-4.1-4.1h-17v-0.5c0-27.4 22.3-49.8 49.8-49.8s49.8,22.3 49.8,49.8v0.5h-17c-2.3,0-4.1,1.8-4.1,4.1v48.9c0,2.3 1.8,4.1 4.1,4.1h21.1c2.3,0 4.1-1.8 4.1-4.1v-39.9-9-4.6c-0.2-31.9-26.2-57.9-58.1-57.9zm-36.8,66.6v40.8h-13v-35.9-5h13zm86.6,5v35.8h-12.9v-40.7h12.9v4.9z"/>
  </g>
</svg>
