<?xml version='1.0' encoding='utf-8'?>
<svg version="1.1" xmlns="http://www.w3.org/2000/svg" viewBox="0 0 129 129" xmlns:xlink="http://www.w3.org/1999/xlink" enable-background="new 0 0 129 129">
  <g>
    <path d="m121.6,40.1c-3.3-16.6-15.1-27.3-30.3-27.3-8.5,0-17.7,3.5-26.7,10.1-9.1-6.8-18.3-10.3-26.9-10.3-15.2,0-27.1,10.8-30.3,27.6-4.8,24.9 10.6,58 55.7,76 0.5,0.2 1,0.3 1.5,0.3 0.5,0 1-0.1 1.5-0.3 45-18.4 60.3-51.4 55.5-76.1zm-57,67.9c-39.6-16.4-53.3-45-49.2-66.3 2.4-12.7 11.2-21 22.3-21 7.5,0 15.9,3.6 24.3,10.5 1.5,1.2 3.6,1.2 5.1,0 8.4-6.7 16.7-10.2 24.2-10.2 11.1,0 19.8,8.1 22.3,20.7 4.1,21.1-9.5,49.6-49,66.3z"/>
  </g>
</svg>
