<?xml version='1.0' encoding='utf-8'?>
<svg version="1.1" xmlns="http://www.w3.org/2000/svg" viewBox="0 0 129 129" xmlns:xlink="http://www.w3.org/1999/xlink" enable-background="new 0 0 129 129">
  <g>
    <path d="m6.9,71.4c0.1,1.3 0.3,2.6 0.6,3.8 0.1,0.5 0.2,1 0.3,1.5 0.7,3.4 1.7,6.7 3.1,9.8 0.2,0.5 0.4,1 0.6,1.4 0.5,1.1 1,2.2 1.6,3.3 0.3,0.5 0.5,1 0.8,1.5 0.6,1.1 1.3,2.2 2,3.3 0.2,0.3 0.4,0.7 0.7,1 0.1,0.1 0.1,0.2 0.2,0.3 0.1,0.1 0.2,0.2 0.2,0.3 1.6,2.3 3.4,4.5 5.4,6.6 0,0 0.1,0.1 0.1,0.2 0.1,0.2 0.3,0.3 0.5,0.5 0.4,0.4 0.8,0.8 1.2,1.2 0.2,0.1 0.3,0.3 0.5,0.5 0,0 0.1,0.1 0.1,0.1 2.1,2 4.4,3.9 6.8,5.6 0.1,0.1 0.2,0.2 0.3,0.2 1.5,1 3.1,1.9 4.6,2.8 0.3,0.2 0.7,0.4 1,0.5 1.2,0.7 2.5,1.3 3.8,1.8 0.4,0.2 0.7,0.3 1.1,0.5 3.2,1.3 6.6,2.4 10,3.1 0.4,0.1 0.9,0.2 1.3,0.3 1.3,0.2 2.6,0.5 4,0.6 0.5,0.1 1,0.1 1.5,0.2 1.8,0.2 3.5,0.3 5.3,0.3 12.1,0 23.3-3.7 32.5-10 0,0 0.1,0 0.1-0.1 1.4-0.9 2.7-1.9 4-3 0.2-0.2 0.4-0.3 0.6-0.5 0.9-0.8 1.8-1.6 2.7-2.5l.4-.4c0.4-0.4 0.8-0.8 1.2-1.2l.5-.5c0.5-0.5 0.9-1.1 1.4-1.6 0.5-0.6 1.1-1.1 1.5-1.8 1-1.2 1.9-2.4 2.8-3.7 0,0 0-0.1 0.1-0.1 6.4-9.3 10.2-20.6 10.2-32.8 0-1.8-0.1-3.6-0.3-5.3 0-0.5-0.1-1-0.2-1.5-0.2-1.3-0.4-2.7-0.6-4-0.1-0.4-0.2-0.9-0.3-1.3-0.7-3.4-1.8-6.8-3.1-10-0.2-0.4-0.3-0.7-0.5-1.1-0.6-1.3-1.2-2.5-1.8-3.8-0.2-0.3-0.3-0.7-0.5-1-0.9-1.6-1.8-3.1-2.8-4.6-0.1-0.1-0.2-0.2-0.3-0.3-0.7-1-1.5-2-2.2-3 0-0.1 0-0.1-0.1-0.2-0.1-0.1-0.2-0.2-0.2-0.3-2.6-3.3-5.6-6.2-8.9-8.9-0.1-0.1-0.2-0.2-0.3-0.2 0,0-0.1,0-0.2-0.1-0.9-0.7-1.8-1.4-2.7-2-0.1-0.1-0.2-0.2-0.3-0.2-0.1-0.1-0.2-0.1-0.3-0.2-0.3-0.2-0.7-0.4-1-0.6-1.1-0.7-2.2-1.4-3.4-2-0.5-0.3-1-0.5-1.5-0.8-1.1-0.6-2.2-1.1-3.3-1.6-0.5-0.2-0.9-0.4-1.4-0.6-3.2-1.3-6.5-2.3-9.9-3.1-0.5-0.1-1-0.2-1.5-0.3-1.3-0.2-2.6-0.4-3.9-0.6-0.5-0.1-1-0.1-1.6-0.2-1.8-0.2-3.5-0.3-5.3-0.3-12.2,0-23.5,3.8-32.8,10.2 0,0-0.1,0-0.1,0.1-1.1,0.7-2.1,1.5-3.1,2.3-0.1,0.1-0.2,0.1-0.2,0.2-3.3,2.6-6.2,5.6-8.9,8.9-0.1,0.1-0.2,0.2-0.2,0.2-0.9,1.1-1.8,2.2-2.6,3.4 0,0 0,0.1 0,0.1-6.3,9.3-10,20.5-10,32.6 0,1.8 0.1,3.6 0.3,5.3 0.3,0.7 0.3,1.3 0.4,1.8zm26.9,32.3c-1.3-1.1-2.6-2.2-3.9-3.3l-1.3-1.3c-1.1-1.1-2.2-2.3-3.2-3.6l15.6-15.6c2.2,3.3 5,6.1 8.3,8.2l-15.5,15.6zm10.8-39.2c0-2.4 0.5-4.7 1.2-6.8 0.2-0.7 0.5-1.3 0.8-1.9 0.3-0.6 0.6-1.2 1-1.8 2.3-3.6 5.6-6.3 9.6-7.9 2.2-0.9 4.6-1.3 7.1-1.3 0.6,0 1.3,0 1.9,0.1 0.4,0 0.8,0.1 1.2,0.2 0.2,0 0.4,0.1 0.6,0.1 0.5,0.1 1.1,0.2 1.6,0.4 0,0 0.1,0 0.2,0 0.6,0.2 1.1,0.3 1.7,0.6 5.4,2.1 9.6,6.3 11.6,11.7 0.2,0.5 0.4,1.1 0.5,1.6 0,0 0,0.1 0,0.1 0.1,0.5 0.2,1 0.3,1.5 0,0.2 0.1,0.4 0.1,0.6 0.1,0.4 0.1,0.8 0.2,1.1 0.1,0.6 0.1,1.2 0.1,1.8 0,2.5-0.5,4.9-1.3,7.1-1.5,4-4.3,7.4-7.9,9.6-0.6,0.4-1.2,0.7-1.8,1-0.6,0.3-1.3,0.6-1.9,0.8-2.1,0.8-4.4,1.2-6.8,1.2-0.6,0-1.2,0-1.8-0.1-0.4,0-0.7-0.1-1.1-0.2-0.2,0-0.4-0.1-0.6-0.1-0.5-0.1-1-0.2-1.5-0.3 0,0-0.1,0-0.1,0-0.5-0.2-1.1-0.3-1.6-0.5-5.4-2-9.7-6.2-11.7-11.6-0.2-0.6-0.4-1.1-0.6-1.7 0,0 0-0.1 0-0.1-0.1-0.5-0.3-1-0.4-1.6 0-0.2-0.1-0.4-0.1-0.6-0.1-0.4-0.1-0.8-0.2-1.2-0.3-0.5-0.3-1.2-0.3-1.8zm19.9,49.9c-1.5,0-3.1-0.1-4.6-0.2-0.3,0-0.6-0.1-0.9-0.1-1.5-0.2-2.9-0.4-4.3-0.7-0.2,0-0.4-0.1-0.7-0.1-1.4-0.3-2.7-0.6-4.1-1-0.1,0-0.2-0.1-0.4-0.1-1.4-0.4-2.8-1-4.2-1.5-0.2-0.1-0.4-0.2-0.6-0.3-1.4-0.6-2.7-1.2-4.1-2l16.7-16.7c0.1,0 0.2,0 0.3,0 0.9,0.2 1.9,0.4 2.8,0.6 0.2,0 0.5,0.1 0.7,0.1 1.1,0.1 2.2,0.2 3.3,0.2 2.5,0 4.8-0.3 7.1-0.9l16.7,16.7c-7,3.8-15.1,6-23.7,6zm38.8-18.6c-0.6,0.7-1.2,1.4-1.8,2-0.4,0.4-0.8,0.9-1.2,1.3l-1.2,1.2c-0.8,0.8-1.6,1.6-2.5,2.3-0.2,0.2-0.5,0.4-0.7,0.6-0.2,0.2-0.4,0.3-0.6,0.5l-15.7-15.6c0,0 0.1,0 0.1-0.1 0.7-0.5 1.4-1 2.1-1.5 0.1-0.1 0.2-0.1 0.2-0.2 2.3-1.8 4.2-4 5.9-6.4l15.6,15.6c-0.1,0.1-0.1,0.2-0.2,0.3zm5-55.1c0.7,1.3 1.4,2.7 2,4.1 0.1,0.2 0.2,0.4 0.3,0.6 0.6,1.4 1.1,2.8 1.5,4.2 0,0.1 0.1,0.2 0.1,0.4 0.4,1.3 0.8,2.7 1.1,4.1 0,0.2 0.1,0.4 0.1,0.7 0.3,1.4 0.5,2.9 0.7,4.3 0,0.3 0.1,0.6 0.1,0.9 0.1,1.5 0.2,3 0.2,4.6 0,8.7-2.3,16.9-6.2,24.1l-16.7-16.7c0.7-2.4 1-4.9 1-7.5 0-1.1-0.1-2.3-0.2-3.4 0-0.2-0.1-0.4-0.1-0.6-0.1-1-0.3-1.9-0.6-2.9 0-0.1 0-0.2 0-0.2l16.7-16.7zm-12.8-15.2l8,8c0.1,0.1 0.1,0.1 0.2,0.2l-15.6,15.7c-2.1-3.3-4.9-6.1-8.2-8.3l15.6-15.6zm-31-10.9c1.5,0 3.1,0.1 4.6,0.2 0.3,0 0.6,0.1 0.9,0.1 1.5,0.2 2.9,0.4 4.3,0.7 0.2,0 0.5,0.1 0.7,0.2 1.3,0.3 2.5,0.6 3.8,1 0.2,0.1 0.5,0.1 0.7,0.2 1.4,0.4 2.7,0.9 4,1.5 0.3,0.1 0.6,0.3 0.9,0.4 1.1,0.5 2.3,1 3.4,1.6 0.2,0.1 0.4,0.2 0.6,0.3 0.1,0 0.1,0.1 0.2,0.1l-16.6,16.6c-0.1,0-0.2,0-0.3-0.1-1-0.3-2-0.5-3-0.6-0.3,0-0.5-0.1-0.8-0.1-1.1-0.1-2.3-0.2-3.5-0.2-2.6,0-5.1,0.4-7.5,1l-16.5-16.6c7.2-4 15.4-6.3 24.1-6.3zm-39,19l8.1-8.1 15.6,15.6c-2.4,1.6-4.6,3.6-6.4,5.9-0.1,0.1-0.1,0.2-0.2,0.2-0.5,0.7-1,1.4-1.5,2.1 0,0 0,0.1-0.1,0.1l-15.7-15.6c0.1-0.1 0.1-0.2 0.2-0.2zm-4.8,7.1l16.7,16.7c-0.6,2.3-0.9,4.6-0.9,7.1 0,1.2 0.1,2.3 0.2,3.5 0,0.3 0.1,0.5 0.1,0.8 0.2,1 0.4,2 0.6,3 0,0.1 0,0.2 0.1,0.3l-16.6,16.5c0-0.1-0.1-0.1-0.1-0.2-0.1-0.2-0.2-0.4-0.3-0.7-0.6-1.1-1.1-2.2-1.6-3.3-0.1-0.3-0.3-0.6-0.4-0.9-0.5-1.3-1-2.6-1.5-4-0.1-0.3-0.1-0.5-0.2-0.8-0.4-1.2-0.7-2.5-1-3.7-0.1-0.2-0.1-0.5-0.2-0.7-0.3-1.4-0.5-2.8-0.7-4.3 0-0.3-0.1-0.6-0.1-1-0.1-1.5-0.2-3-0.2-4.6 0-8.5 2.2-16.6 6.1-23.7z"/>
  </g>
</svg>
