<?xml version='1.0' encoding='utf-8'?>
<svg version="1.1" xmlns="http://www.w3.org/2000/svg" viewBox="0 0 129 129" xmlns:xlink="http://www.w3.org/1999/xlink" enable-background="new 0 0 129 129">
  <g>
    <path d="m10.5,122.5h39.9c0.2,0 0.5,0.1 0.7,0.1h27c0.2,0 0.5,0 0.7-0.1h39.6c2.3,0 4.1-1.8 4.1-4.1v-54c0-0.3 0-0.5-0.1-0.8 0-0.2-0.1-0.3-0.2-0.5 0-0.1 0-0.2-0.1-0.2-0.1-0.2-0.2-0.4-0.3-0.5 0-0.1-0.1-0.1-0.1-0.2-0.1-0.2-0.3-0.4-0.5-0.6l-54-54c-1.6-1.6-4.2-1.6-5.8,0l-54,54c-0.2,0.2-0.4,0.4-0.5,0.6 0,0.1-0.1,0.1-0.1,0.2-0.1,0.2-0.2,0.3-0.3,0.5 0,0.1-0.1,0.2-0.1,0.3-0.1,0.2-0.1,0.3-0.2,0.5-0.1,0.3-0.1,0.5-0.1,0.8v54c0.4,2.2 2.2,4 4.4,4zm63.5-8.2h-18.8v-18.8h18.8v18.8zm-9.5-98l44.1,44.1h-88.2l44.1-44.1zm-49.9,52.3h99.7v45.8h-32.1v-23c0-2.3-1.8-4.1-4.1-4.1h-27c-2.3,0-4.1,1.8-4.1,4.1v22.9h-32.4v-45.7z"/>
  </g>
</svg>
