<?xml version='1.0' encoding='utf-8'?>
<svg version="1.1" xmlns="http://www.w3.org/2000/svg" viewBox="0 0 129 129" xmlns:xlink="http://www.w3.org/1999/xlink" enable-background="new 0 0 129 129">
  <g>
    <g>
      <path d="m64.5,122.6c32,0 58-26 58-58s-26-58-58-58-58.1,26-58.1,58 26.1,58 58.1,58zm0-108c27.5,5.32907e-15 49.9,22.4 49.9,49.9s-22.4,49.9-49.9,49.9-49.9-22.4-49.9-49.9 22.4-49.9 49.9-49.9z"/>
      <path d="m54.8,90.1c-2.3,0-4.1,1.8-4.1,4.1s1.8,4.1 4.1,4.1h26.9c2.3,0 4.1-1.8 4.1-4.1s-1.8-4.1-4.1-4.1h-9.4v-36.1c0-2.3-1.8-4.1-4.1-4.1h-13.4c-2.3,0-4.1,1.8-4.1,4.1 0,2.3 1.8,4.1 4.1,4.1h9.4v32h-9.4z"/>
      <circle cx="62.7" cy="36.5" r="6.6"/>
    </g>
  </g>
</svg>
