<?xml version='1.0' encoding='utf-8'?>
<svg version="1.1" xmlns="http://www.w3.org/2000/svg" viewBox="0 0 129 129" xmlns:xlink="http://www.w3.org/1999/xlink" enable-background="new 0 0 129 129">
  <g>
    <g>
      <path d="M118.7,114.3H14.4V10.5c0-2.3-1.8-4.1-4.1-4.1s-4.1,1.8-4.1,4.1v107.9c0,2.3,1.8,4.1,4.1,4.1h108.4c2.3,0,4.1-1.8,4.1-4.1    S121,114.3,118.7,114.3z"/>
      <path d="m118.7,6.4h-89.5c-2.3,0-4.1,1.8-4.1,4.1v89c0,2.3 1.8,4.1 4.1,4.1h89.5c2.3,0 4.1-1.8 4.1-4.1v-89c0-2.2-1.8-4.1-4.1-4.1zm-4.1,89.1h-81.3v-80.9h81.3v80.9z"/>
    </g>
  </g>
</svg>
