<?xml version='1.0' encoding='utf-8'?>
<svg version="1.1" xmlns="http://www.w3.org/2000/svg" viewBox="0 0 129 129" xmlns:xlink="http://www.w3.org/1999/xlink" enable-background="new 0 0 129 129">
  <g>
    <path d="m35.9,52.6l-24.7,24.8c-6.4,6.4-6.4,16.7 0,23.1l17.3,17.3c3.1,3.1 7.2,4.8 11.6,4.8 4.4,0 8.5-1.7 11.6-4.8l24.6-24.8c3.1-3.1 4.8-7.2 4.8-11.6 0-0.2 0-0.3-0.1-0.5 0.2,0 0.3,0.1 0.5,0.1 4.4,0 8.5-1.7 11.6-4.8l24.8-24.8c6.4-6.4 6.4-16.7 0-23.1l-17.3-17.3c-3.1-3-7.2-4.7-11.6-4.7s-8.4,1.7-11.5,4.8l-24.8,24.7c-3.1,3.1-4.8,7.2-4.8,11.6 0,0.2 0,0.3 0.1,0.5-0.2,0-0.3-0.1-0.5-0.1-4.4,0-8.5,1.7-11.6,4.8zm23.1-10.5l24.8-24.8c1.4-1.4 3.3-2.2 5.3-2.2s3.9,0.8 5.3,2.2l17.3,17.3c2.9,2.9 2.9,7.6 0,10.5l-24.9,24.8c-2.8,2.8-7.7,2.8-10.5,0l-5.5-5.5 5-5c1.7-1.7 1.7-4.6 0-6.3-1.7-1.7-4.6-1.7-6.3,0l-5,5-5.5-5.5c-1.4-1.4-2.2-3.3-2.2-5.3s0.8-3.8 2.2-5.2zm-6.3,16.8l5.5,5.5-5,5c-1.7,1.7-1.7,4.6 0,6.3 0.9,0.9 2,1.3 3.1,1.3s2.3-0.4 3.1-1.3l5-5 5.5,5.5c1.4,1.4 2.2,3.3 2.2,5.3 0,2-0.8,3.9-2.2,5.3l-24.8,24.8c-2.8,2.8-7.7,2.8-10.5,0l-17.2-17.4c-2.9-2.9-2.9-7.6 0-10.5l24.8-24.8c1.4-1.4 3.3-2.2 5.3-2.2 1.9,0 3.8,0.8 5.2,2.2z"/>
  </g>
</svg>
