<?xml version='1.0' encoding='utf-8'?>
<svg version="1.1" xmlns="http://www.w3.org/2000/svg" viewBox="0 0 129 129" xmlns:xlink="http://www.w3.org/1999/xlink" enable-background="new 0 0 129 129">
  <g>
    <path d="M7,118.5c0,2.2,1.8,4.1,4.1,4.1h21.1c2.2,0,4.1-1.8,4.1-4.1V63.9c0-15.6,12.7-28.3,28.3-28.3c15.6,0,28.3,12.7,28.3,28.3   V118c0,2.2,1.8,4.1,4.1,4.1H118c2.2,0,4.1-1.8,4.1-4.1V64c0-31.7-25.8-57.5-57.5-57.5S7,32.3,7,64V118.5z M113.9,114h-12.9v-12.9   h12.9V114z M15.1,64c0-27.2,22.2-49.4,49.4-49.4c27.2,0,49.4,22.2,49.4,49.4v29h-12.9V63.9c0-20.1-16.3-36.4-36.4-36.4   S28.1,43.8,28.1,63.9V93H15.1V64z M15.1,101.1h12.9v13.3H15.1V101.1z"/>
  </g>
</svg>
