<?xml version='1.0' encoding='utf-8'?>
<svg version="1.1" xmlns="http://www.w3.org/2000/svg" viewBox="0 0 129 129" xmlns:xlink="http://www.w3.org/1999/xlink" enable-background="new 0 0 129 129">
  <g>
    <path d="m119.6,17.5l-36-10.9c-0.1,0-0.2,0-0.2,0-0.2,0-0.3-0.1-0.5-0.1-0.2,0-0.3,0-0.5,0-0.2,0-0.3,0-0.5,0-0.2,0-0.3,0-0.5,0.1-0.1,0-0.2,0-0.2,0l-34.7,10.6-34.8-10.6c-1.2-0.4-2.6-0.1-3.6,0.6-1,0.8-1.7,2-1.7,3.3v97c0,1.8 1.2,3.4 2.9,3.9l36,10.9c0.4,0.1 0.8,0.2 1.2,0.2 0.4,0 0.8-0.1 1.2-0.2l34.8-10.5 34.8,10.5c0.4,0.1 0.8,0.2 1.2,0.2 0.9,0 1.7-0.3 2.4-0.8 1-0.8 1.7-2 1.7-3.3v-97c-1.42109e-14-1.8-1.2-3.3-3-3.9zm-77.2,95.5l-27.8-8.4v-88.6l27.8,8.4v88.6zm36-8.5l-27.8,8.5v-88.5l27.8-8.5v88.5zm36,8.5l-27.8-8.4v-88.6l27.8,8.4v88.6z"/>
  </g>
</svg>
