<?xml version='1.0' encoding='utf-8'?>
<svg version="1.1" xmlns="http://www.w3.org/2000/svg" viewBox="0 0 129 129" xmlns:xlink="http://www.w3.org/1999/xlink" enable-background="new 0 0 129 129">
  <g>
    <path d="m118.5,10.5h-108c-2.3,0-4.1,1.8-4.1,4.1v51.7 21.1c0,2.3 1.8,4.1 4.1,4.1h49.9v18.8h-22.9c-2.3,0-4.1,1.8-4.1,4.1s1.8,4.1 4.1,4.1h54c2.3,0 4.1-1.8 4.1-4.1s-1.8-4.1-4.1-4.1h-22.9v-18.8h49.9c2.3,0 4.1-1.8 4.1-4.1v-21.1-51.7c0-2.3-1.8-4.1-4.1-4.1zm-4.1,72.8h-99.8v-13h99.8v13zm0-21.1h-99.8v-43.5h99.8v43.5z"/>
  </g>
</svg>
