<?xml version='1.0' encoding='utf-8'?>
<svg version="1.1" xmlns="http://www.w3.org/2000/svg" viewBox="0 0 129 129" xmlns:xlink="http://www.w3.org/1999/xlink" enable-background="new 0 0 129 129">
  <g>
    <path d="m108.8,27.1c1.6-0.2 2.9-1.4 3.3-3 0.4-1.5-0.1-3.2-1.3-4.2-10.4-8.8-23.7-13.7-37.4-13.7-32.1,8.88178e-16-58.3,26.1-58.3,58.3s26.1,58.3 58.3,58.3c14.4,0 28.3-5.4 39.1-15.1 1.2-1.1 1.6-2.8 1.2-4.3s-1.8-2.6-3.4-2.8c-18.6-2.2-32.7-18-32.7-36.8-0.1-18.5 13.1-33.9 31.2-36.7zm-39.5,36.6c0,19.8 12.8,36.9 31,43-8,5.1-17.3,7.9-26.9,7.9-27.6,0-50-22.5-50-50s22.5-50 50-50c8.9,0 17.6,2.4 25.2,6.8-17.4,6.4-29.3,23-29.3,42.3z"/>
  </g>
</svg>
