<?xml version='1.0' encoding='utf-8'?>
<svg version="1.1" xmlns="http://www.w3.org/2000/svg" viewBox="0 0 129 129" xmlns:xlink="http://www.w3.org/1999/xlink" enable-background="new 0 0 129 129">
  <g>
    <path d="m64.5,122.5c2.3,0 4.1-1.9 4.1-4.1v-35.2h36.9c2.3,0 4.1-1.9 4.1-4.1v-14.7-53.8c0-2.3-1.9-4.1-4.1-4.1h-20.1c-0.1,0-0.2,0-0.3,0-0.1,0-0.2,0-0.3,0h-19.9c-0.1,0-0.2,0-0.3,0s-0.2,0-0.3,0h-20c-0.1,0-0.2,0-0.3,0-0.1,0-0.2,0-0.3,0h-20.3c-2.3,0-4.1,1.9-4.1,4.1v53.8 14.6c0,2.3 1.9,4.1 4.1,4.1h36.9v35.2c0,2.4 1.9,4.2 4.2,4.2zm-36.9-107.7h12.2v14.5c0,2.3 1.9,4.1 4.1,4.1 2.3,0 4.1-1.9 4.1-4.1v-14.5h12.4v23.7c0,2.3 1.9,4.1 4.1,4.1 2.3,0 4.1-1.9 4.1-4.1v-23.7h12.2v14.5c0,2.3 1.9,4.1 4.1,4.1 2.3,0 4.1-1.9 4.1-4.1v-14.5h12.2v45.5h-73.6v-45.5zm0,60.1v-6.4h73.8v6.4h-73.8z"/>
  </g>
</svg>
