<?xml version='1.0' encoding='utf-8'?>
<svg version="1.1" xmlns="http://www.w3.org/2000/svg" viewBox="0 0 129 129" xmlns:xlink="http://www.w3.org/1999/xlink" enable-background="new 0 0 129 129">
  <g>
    <g>
      <path d="m10.5,122.6h107.9c2.3,0 4.1-1.8 4.1-4.1v-54-54c0-2.3-1.8-4.1-4.1-4.1h-107.9c-2.3,0-4.1,1.8-4.1,4.1v54 54c0,2.2 1.9,4.1 4.1,4.1zm32.3-108h71.5v45.8h-20.3c-2-14.5-14.5-25.8-29.5-25.8-8.5,0-16.2,3.6-21.7,9.4v-29.4zm21.7,28.2c11.9,0 21.7,9.7 21.7,21.7s-9.7,21.7-21.7,21.7-21.7-9.7-21.7-21.7 9.8-21.7 21.7-21.7zm-49.9-28.2h20v45.8h-20v-45.8zm-0,54h20.4c2,14.5 14.5,25.8 29.5,25.8s27.5-11.3 29.5-25.8h20.3v45.8h-99.7v-45.8z"/>
      <path d="m86.3,33.1h10.6c2.3,0 4.1-1.8 4.1-4.1s-1.8-4.1-4.1-4.1h-10.6c-2.3,0-4.1,1.8-4.1,4.1s1.8,4.1 4.1,4.1z"/>
      <path d="m64.5,80c8.6,0 15.5-7 15.5-15.5s-6.9-15.5-15.5-15.5-15.5,6.9-15.5,15.5 6.9,15.5 15.5,15.5zm0-22.9c4.1,0 7.4,3.3 7.4,7.4s-3.3,7.4-7.4,7.4-7.4-3.3-7.4-7.4 3.3-7.4 7.4-7.4z"/>
    </g>
  </g>
</svg>
