<?xml version='1.0' encoding='utf-8'?>
<svg version="1.1" xmlns="http://www.w3.org/2000/svg" viewBox="0 0 129 129" xmlns:xlink="http://www.w3.org/1999/xlink" enable-background="new 0 0 129 129">
  <g>
    <g>
      <path d="M64.5,122.5c32,0,58-26,58-58c0-27.3-18.6-50.6-45.2-56.6c-2.2-0.5-4.4,0.9-4.9,3.1s0.9,4.4,3.1,4.9    C98.4,21,114.4,41,114.4,64.5c0,27.5-22.4,49.9-49.9,49.9S14.6,92,14.6,64.5c0-23.4,15.9-43.3,38.6-48.6c2.2-0.5,3.6-2.7,3.1-4.9    c-0.5-2.2-2.7-3.6-4.9-3.1C24.9,14,6.4,37.3,6.4,64.5C6.4,96.5,32.5,122.5,64.5,122.5z"/>
      <path d="m60.4,10.6v53.9c0,2.3 1.8,4.1 4.1,4.1 2.3,0 4.1-1.8 4.1-4.1v-53.9c0-2.3-1.8-4.1-4.1-4.1-2.3,0-4.1,1.8-4.1,4.1z"/>
    </g>
  </g>
</svg>
