<?xml version='1.0' encoding='utf-8'?>
<svg version="1.1" xmlns="http://www.w3.org/2000/svg" viewBox="0 0 129 129" xmlns:xlink="http://www.w3.org/1999/xlink" enable-background="new 0 0 129 129">
  <g>
    <g>
      <path d="m10.6,35.7h6.5v47.6c0,2.3 1.8,4.1 4.1,4.1h15l-18.5,28.8c-1.2,1.9-0.7,4.4 1.2,5.6 0.7,0.4 1.4,0.6 2.2,0.6 1.3,0 2.7-0.7 3.4-1.9l21.3-33.2h37.2l21.3,33.3c0.8,1.2 2.1,1.9 3.4,1.9 0.8,0 1.5-0.2 2.2-0.6 1.9-1.2 2.5-3.7 1.2-5.6l-18.4-28.9h15.1c2.3,0 4.1-1.8 4.1-4.1v-47.6h6.5c2.3,0 4.1-1.8 4.1-4.1v-21.1c0-2.3-1.8-4.1-4.1-4.1h-107.8c-2.3,0-4.1,1.8-4.1,4.1v21.1c0,2.3 1.8,4.1 4.1,4.1zm93.1,43.6h-17.3c-0.9-0.3-1.8-0.3-2.7,0h-39.8c-0.1,0-0.2,0-0.4,0h-18.2v-43.6h78.5v43.6zm-89.2-64.7h99.7v12.9h-6.5-86.6-6.5v-12.9z"/>
      <path d="m37.4,71.3c1,0 2.1-0.4 2.9-1.2l6.5-6.5 13.4,3.5c1.5,0.4 3.1-0.1 4.2-1.3l13.6-16.2c1.5-1.7 1.2-4.3-0.5-5.8-1.7-1.5-4.3-1.2-5.8,0.5l-12,14.2-13.2-3.4c-1.4-0.4-2.9,0-3.9,1.1l-8.2,8.2c-1.6,1.6-1.6,4.2 0,5.8 0.9,0.7 1.9,1.1 3,1.1z"/>
    </g>
  </g>
</svg>
