<?xml version='1.0' encoding='utf-8'?>
<svg version="1.1" xmlns="http://www.w3.org/2000/svg" viewBox="0 0 129 129" xmlns:xlink="http://www.w3.org/1999/xlink" enable-background="new 0 0 129 129">
  <g>
    <g>
      <path d="m10.5,105h22.9v13.5c0,2.3 1.8,4.1 4.1,4.1h54c2.3,0 4.1-1.8 4.1-4.1v-13.5h22.9c2.3,0 4.1-1.8 4.1-4.1v-72.8c0-2.3-1.8-4.1-4.1-4.1h-22.9v-13.5c0-2.3-1.8-4.1-4.1-4.1h-54c-2.3,0-4.1,1.8-4.1,4.1v13.5h-22.9c-2.3,0-4.1,1.8-4.1,4.1v72.8c0,2.2 1.9,4.1 4.1,4.1zm76.9,9.4h-45.8v-33.8h45.8v33.8zm-45.8-99.8h45.8v9.4h-45.8v-9.4zm-27,17.6h22.9 54 22.9v64.6h-18.8v-16.2h7.3c2.3,0 4.1-1.8 4.1-4.1s-1.8-4.1-4.1-4.1h-11.4-54-11.3c-2.3,0-4.1,1.8-4.1,4.1s1.8,4.1 4.1,4.1h7.3v16.2h-18.9v-64.6z"/>
      <path d="m86.2,53.3h10.6c2.3,0 4.1-1.8 4.1-4.1s-1.8-4.1-4.1-4.1h-10.6c-2.3,0-4.1,1.8-4.1,4.1s1.8,4.1 4.1,4.1z"/>
    </g>
  </g>
</svg>
