<?xml version='1.0' encoding='utf-8'?>
<svg version="1.1" xmlns="http://www.w3.org/2000/svg" viewBox="0 0 129 129" xmlns:xlink="http://www.w3.org/1999/xlink" enable-background="new 0 0 129 129">
  <g>
    <g>
      <path d="m64.3,71.6c18,0 32.6-14.6 32.6-32.6s-14.6-32.5-32.6-32.5-32.6,14.6-32.6,32.5 14.6,32.6 32.6,32.6zm0-56.6c13.2,0 24,10.8 24,24s-10.8,24-24,24-24-10.8-24-24 10.8-24 24-24z"/>
      <path d="m7.9,122.5h113.2c2.4,0 4.3-1.9 4.3-4.3 0-22.5-18.3-40.9-40.9-40.9h-40c-22.5,0-40.9,18.3-40.9,40.9-1.33227e-15,2.4 1.9,4.3 4.3,4.3zm36.6-36.6h40c16.4,0 29.9,12.2 32,28h-104c2.1-15.7 15.6-28 32-28z"/>
    </g>
  </g>
</svg>
