<?xml version='1.0' encoding='utf-8'?>
<svg version="1.1" xmlns="http://www.w3.org/2000/svg" viewBox="0 0 129 129" xmlns:xlink="http://www.w3.org/1999/xlink" enable-background="new 0 0 129 129">
  <g>
    <path d="m59.8,122.6c2.3,0 4.1-1.8 4.1-4.1v-31h35.1c0,0 0,0 0.1,0h7c2.3,0 4.1-1.8 4.1-4.1 0-2.3-1.8-4.1-4.1-4.1h-3.7l-12.1-64.7h9.8c2.3,5.32907e-15 4.1-1.8 4.1-4.1s-1.8-4.1-4.1-4.1h-14.7-51.2-14.7c-2.3,0-4.1,1.8-4.1,4.1s1.8,4.1 4.1,4.1h9.8l-12.1,64.7h-3.7c-2.3,0-4.1,1.8-4.1,4.1 0,2.3 1.8,4.1 4.1,4.1h7.1 35.2v31c-0.1,2.2 1.7,4.1 4,4.1zm-34.3-43.3l12.1-64.6h44.4l12.1,64.6h-68.6z"/>
  </g>
</svg>
