<?xml version="1.0" standalone="no"?>
<!DOCTYPE svg PUBLIC "-//W3C//DTD SVG 20010904//EN"
 "http://www.w3.org/TR/2001/REC-SVG-20010904/DTD/svg10.dtd">
<svg version="1.0" xmlns="http://www.w3.org/2000/svg"
 width="512.000000pt" height="512.000000pt" viewBox="0 0 512.000000 512.000000"
 preserveAspectRatio="xMidYMid meet">

<g transform="translate(0.000000,512.000000) scale(0.100000,-0.100000)"
fill="#000000" stroke="none">
<path d="M1367 5109 c-11 -6 -25 -25 -31 -43 -7 -17 -62 -324 -122 -683 l-109
-652 -527 -3 -526 -3 -26 -24 c-20 -19 -26 -34 -26 -65 1 -44 13 -66 47 -84
16 -9 163 -12 532 -12 l511 0 0 -58 0 -57 -48 -18 c-145 -51 -252 -224 -239
-385 8 -92 21 -131 70 -204 43 -64 124 -129 182 -145 l30 -9 6 -694 c5 -671 6
-698 28 -795 115 -517 451 -906 940 -1091 255 -96 599 -112 877 -40 239 62
480 201 659 381 211 213 339 448 406 750 22 97 23 124 28 795 l6 694 30 9 c58
16 139 81 182 145 49 73 62 112 70 204 13 161 -94 334 -239 385 l-48 18 0 57
0 58 511 0 c369 0 516 3 532 12 34 18 46 40 47 84 0 31 -6 46 -26 65 l-26 24
-526 3 -527 3 -109 652 c-60 359 -115 666 -122 684 -7 17 -21 36 -32 42 -29
15 -2359 15 -2385 0z m2257 -186 c5 -16 136 -795 136 -808 0 -3 -351 -5 -781
-5 -540 0 -787 -3 -801 -11 -11 -6 -26 -26 -34 -45 -12 -29 -12 -39 0 -68 8
-18 20 -37 27 -42 8 -5 376 -11 819 -14 l804 -5 17 -97 16 -98 -1267 0 -1267
0 16 98 17 97 304 5 c168 3 311 9 319 14 7 5 19 24 27 42 12 29 12 39 0 68 -8
19 -23 39 -34 45 -14 7 -119 11 -301 11 -155 0 -281 2 -281 5 0 13 131 792
136 808 5 16 64 17 1064 17 1000 0 1059 -1 1064 -17z m-2233 -1800 c0 -297 4
-428 12 -452 11 -32 36 -49 286 -192 l274 -157 24 -83 c60 -207 187 -347 372
-407 64 -21 95 -25 201 -25 106 0 137 4 201 25 185 60 312 200 372 407 l24 83
274 157 c250 143 275 160 286 192 8 24 12 155 12 452 l1 417 55 0 56 0 -4
-1137 -3 -1138 -22 -85 c-83 -310 -241 -555 -472 -729 -242 -184 -481 -265
-780 -265 -299 0 -538 81 -780 265 -231 174 -389 419 -472 729 l-22 85 -3
1138 -4 1137 56 0 55 0 1 -417z m2147 25 l-3 -392 -230 -133 c-126 -72 -236
-132 -243 -132 -7 -1 -85 28 -172 64 -87 36 -170 65 -184 65 -13 0 -38 -12
-55 -26 -25 -21 -31 -33 -31 -65 0 -58 25 -77 193 -144 168 -68 161 -58 114
-165 -46 -104 -149 -194 -244 -215 l-33 -7 0 99 c0 86 -3 102 -20 121 -39 41
-101 41 -140 0 -17 -19 -20 -35 -20 -121 l0 -99 -32 7 c-96 21 -199 111 -245
215 -47 106 -53 97 109 165 164 68 188 86 188 144 0 32 -6 44 -31 65 -17 14
-42 26 -56 26 -14 0 -95 -29 -179 -65 -85 -36 -159 -65 -166 -64 -7 0 -116 60
-243 132 l-230 133 -3 392 -2 392 980 0 980 0 -2 -392z m-2453 -276 c-9 -10
-57 42 -76 83 -37 80 -14 196 49 246 l27 21 3 -173 c1 -94 0 -174 -3 -177z
m3012 287 c31 -47 41 -128 23 -184 -12 -37 -65 -105 -81 -105 -5 0 -9 79 -9
175 0 173 0 176 20 165 11 -6 32 -29 47 -51z"/>
<path d="M1897 3279 c-25 -15 -47 -70 -40 -100 3 -13 15 -34 26 -46 20 -23 25
-23 239 -23 l219 0 24 26 c42 45 31 114 -22 142 -29 16 -420 16 -446 1z"/>
<path d="M2773 3266 c-37 -32 -39 -93 -4 -130 l24 -26 213 0 c117 0 220 3 229
6 21 8 45 56 45 89 0 16 -12 38 -29 56 l-29 29 -211 0 c-207 0 -210 0 -238
-24z"/>
</g>
</svg>
