<?xml version='1.0' encoding='utf-8'?>
<svg version="1.1" xmlns="http://www.w3.org/2000/svg" viewBox="0 0 129 129" xmlns:xlink="http://www.w3.org/1999/xlink" enable-background="new 0 0 129 129">
  <g>
    <g>
      <path d="m64.5,122.4c31.9,0 57.9-26 57.9-57.9s-26-57.9-57.9-57.9-57.9,26-57.9,57.9 26,57.9 57.9,57.9zm0-107.7c27.4-3.55271e-15 49.8,22.3 49.8,49.8s-22.3,49.8-49.8,49.8-49.8-22.4-49.8-49.8 22.4-49.8 49.8-49.8z"/>
      <path d="M37.8,68h53.3c2.3,0,4.1-1.8,4.1-4.1s-1.8-4.1-4.1-4.1H37.8c-2.3,0-4.1,1.8-4.1,4.1S35.6,68,37.8,68z"/>
    </g>
  </g>
</svg>
