<?xml version='1.0' encoding='utf-8'?>
<svg version="1.1" xmlns="http://www.w3.org/2000/svg" viewBox="0 0 129 129" xmlns:xlink="http://www.w3.org/1999/xlink" enable-background="new 0 0 129 129">
  <g>
    <path d="m67.2,34.2c-1.5-0.6-3.3-0.3-4.5,0.9l-26.4,26.5c-0.8,0.8-1.2,1.8-1.2,2.9s0.4,2.1 1.2,2.9l26.5,26.5c0.8,0.8 1.8,1.2 2.9,1.2 0.5,0 1.1-0.1 1.6-0.3 1.5-0.6 2.5-2.1 2.5-3.8v-14.3l17.2,17.2c0.8,0.8 1.8,1.2 2.9,1.2 0.5,0 1.1-0.1 1.6-0.3 1.5-0.6 2.5-2.1 2.5-3.8v-53c0-1.7-1-3.2-2.5-3.8-1.5-0.6-3.3-0.3-4.5,0.9l-17.2,17.2v-14.3c0-1.6-1-3.1-2.6-3.8zm-5.7,28v4.6 14.3l-16.5-16.6 16.6-16.6v14.3zm24.1-14.3v33.2l-16-16v-1.2l16-16z"/>
  </g>
</svg>
