<?xml version='1.0' encoding='utf-8'?>
<svg version="1.1" xmlns="http://www.w3.org/2000/svg" viewBox="0 0 129 129" xmlns:xlink="http://www.w3.org/1999/xlink" enable-background="new 0 0 129 129">
  <g>
    <g>
      <path d="m100.1,106.2c2.3,0 4.1-1.8 4.1-4.1v-8.4c0-8.2-3.3-15.9-9.2-21.5 0.4-2.6 0.7-5.2 0.7-7.7 1.42109e-14-28.5-27.1-56-28.3-57.1-0.8-0.8-1.8-1.2-2.9-1.2-1.1,0-2.1,0.4-2.9,1.2-1.1,1.2-28.1,28.7-28.1,57.1 0,2.5 0.2,5 0.6,7.5-5.9,5.7-9.3,13.4-9.3,21.7v8.4c0,2.3 1.8,4.1 4.1,4.1s4.1-1.8 4.1-4.1v-8.4c0-4.3 1.3-8.4 3.5-11.9 1.2,3.7 2.9,7.6 4.9,11.5 0.7,1.4 2.1,2.2 3.7,2.2h15.4v6.6c0,2.3 1.8,4.1 4.1,4.1 2.3,0 4.1-1.8 4.1-4.1v-6.6h15.5c1.5,0 2.9-0.9 3.7-2.2 2-3.8 3.6-7.6 4.8-11.3 2.2,3.5 3.4,7.5 3.4,11.7v8.4c-0.1,2.2 1.7,4.1 4,4.1zm-18.5-18.9h-13v-6.6c0-2.3-1.8-4.1-4.1-4.1-2.3,0-4.1,1.8-4.1,4.1v6.6h-12.8c-2.3-4.9-4-9.7-4.9-14.1 0-0.3-0.1-0.6-0.2-0.9-0.5-2.7-0.8-5.3-0.8-7.8 0-19.8 16.1-40.4 22.8-48.1 6.8,7.7 23,28.2 23,48.1 0,6.9-2,14.6-5.9,22.8z"/>
      <path d="m49.9,52.9c0,8.1 6.6,14.8 14.8,14.8s14.8-6.6 14.8-14.8-6.6-14.8-14.8-14.8-14.8,6.7-14.8,14.8zm14.8-6.5c3.6,0 6.6,2.9 6.6,6.6s-2.9,6.6-6.6,6.6c-3.6,0-6.6-2.9-6.6-6.6s3-6.6 6.6-6.6z"/>
      <path d="m45.9,118.7v-13.7c0-2.3-1.8-4.1-4.1-4.1-2.3,0-4.1,1.8-4.1,4.1v13.7c0,2.3 1.8,4.1 4.1,4.1 2.3,0 4.1-1.8 4.1-4.1z"/>
      <path d="m91.3,118.7v-13.7c0-2.3-1.8-4.1-4.1-4.1-2.3,0-4.1,1.8-4.1,4.1v13.7c0,2.3 1.8,4.1 4.1,4.1 2.2,0 4.1-1.8 4.1-4.1z"/>
    </g>
  </g>
</svg>
