<?xml version='1.0' encoding='utf-8'?>
<svg version="1.1" xmlns="http://www.w3.org/2000/svg" viewBox="0 0 129 129" xmlns:xlink="http://www.w3.org/1999/xlink" enable-background="new 0 0 129 129">
  <g>
    <path d="m43.2,80c2.8,0 5.4-0.8 7.7-2.1l21.4,21.4c-1.3,2.3-2.1,4.9-2.1,7.7 0,8.6 7,15.5 15.5,15.5s15.5-7 15.5-15.5c0-8.6-7-15.5-15.5-15.5-2.8,0-5.4,0.8-7.7,2.1l-21.3-21.4c1.3-2.3 2.1-4.9 2.1-7.7s-0.8-5.4-2.1-7.7l21.3-21.3c2.3,1.3 4.9,2.1 7.7,2.1 8.6,0 15.5-7 15.5-15.5s-7-15.5-15.5-15.5-15.5,7-15.5,15.5c0,2.8 0.8,5.4 2.1,7.7l-21.4,21.2c-2.2-1.3-4.9-2-7.7-2-8.6,0-15.5,7-15.5,15.5s7,15.5 15.5,15.5zm42.6,19.7c4.1,0 7.4,3.3 7.4,7.4 0,4.1-3.3,7.4-7.4,7.4-4.1,0-7.4-3.3-7.4-7.4 1.42109e-14-4.1 3.3-7.4 7.4-7.4zm0-85.1c4.1,5.32907e-15 7.4,3.3 7.4,7.4s-3.3,7.4-7.4,7.4c-4.1,0-7.4-3.3-7.4-7.4s3.3-7.4 7.4-7.4zm-42.6,42.5c4.1,0 7.4,3.3 7.4,7.4s-3.3,7.4-7.4,7.4-7.4-3.3-7.4-7.4 3.4-7.4 7.4-7.4z"/>
  </g>
</svg>
