<?xml version='1.0' encoding='utf-8'?>
<svg version="1.1" xmlns="http://www.w3.org/2000/svg" viewBox="0 0 129 129" xmlns:xlink="http://www.w3.org/1999/xlink" enable-background="new 0 0 129 129">
  <g>
    <path d="m118.2,33.5c-0.2,0-25.2-0.6-50.7-25.9-0.8-0.8-1.8-1.2-2.9-1.2h-0.4c-1.1,0-2.1,0.4-2.9,1.2-25.3,25.3-50.3,25.9-50.5,25.9-2.2,0-4,1.8-4,4.1v26.4c0,0.5 0.1,1 0.3,1.5 0.7,1.8 18,44.5 56,56.4 0.4,0.1 0.8,0.2 1.2,0.2 0.1,0 0.3,0 0.4,0 0.4,0 0.8-0.1 1.2-0.2 38-11.9 55.3-54.6 56-56.4 0.2-0.5 0.3-1 0.3-1.5v-26.4c0-2.2-1.8-4-4-4.1zm-4.1,29.7c-2.3,5.3-18.4,40.2-49.6,50.6-31.2-10.4-47.3-45.3-49.6-50.7v-21.8c8.4-1.1 28.5-5.7 49.6-25.4 21.1,19.7 41.2,24.3 49.6,25.4v21.9z"/>
  </g>
</svg>
