<?xml version='1.0' encoding='utf-8'?>
<svg version="1.1" xmlns="http://www.w3.org/2000/svg" viewBox="0 0 129 129" xmlns:xlink="http://www.w3.org/1999/xlink" enable-background="new 0 0 129 129">
  <g>
    <path d="m10.7,99.5h4.8c-3.3,5.9-2.5,13.5 2.5,18.5 2.9,2.9 6.8,4.5 11,4.5s8-1.6 11-4.5c2.9-2.9 4.5-6.8 4.5-11 0-2.7-0.7-5.2-2-7.5h19.3c-3.3,5.9-2.5,13.5 2.5,18.5 2.9,2.9 6.8,4.5 11,4.5s8-1.6 11-4.5c2.9-2.9 4.5-6.8 4.5-11 0-2.7-0.7-5.2-2-7.5h5.2c2.3,0 4.1-1.8 4.1-4.1 0-2.3-1.8-4.1-4.1-4.1h-79.2v-8h90c1.8,0 3.4-1.2 3.9-3l13.6-49.7c0.3-1.2 0.1-2.5-0.7-3.5-0.8-1-2-1.6-3.2-1.6h-103.6v-14.9c3.55271e-15-2.3-1.8-4.1-4.1-4.1s-4.1,1.8-4.1,4.1v18.9 49.7 16.1c-1.77636e-15,2.4 1.8,4.2 4.1,4.2zm59.3,2.3c1.4-1.4 3.2-2.2 5.2-2.2 2,0 3.8,0.8 5.2,2.2 1.4,1.4 2.2,3.2 2.2,5.2 0,2-0.8,3.8-2.2,5.2-2.8,2.8-7.6,2.8-10.4,0-2.9-2.9-2.9-7.5 0-10.4zm-46.2,0c1.4-1.4 3.2-2.2 5.2-2.2 2,0 3.8,0.8 5.2,2.2 1.4,1.4 2.2,3.2 2.2,5.2 0,2-0.8,3.8-2.2,5.2-2.8,2.8-7.6,2.8-10.4,0-2.9-2.9-2.9-7.5-3.55271e-15-10.4zm-9-68.2h98.2l-11.4,41.6h-86.8v-41.6z"/>
  </g>
</svg>
