<?xml version='1.0' encoding='utf-8'?>
<svg version="1.1" xmlns="http://www.w3.org/2000/svg" viewBox="0 0 129 129" xmlns:xlink="http://www.w3.org/1999/xlink" enable-background="new 0 0 129 129">
  <g>
    <path d="m105.5,23.3c-0.1-0.1-0.3-0.2-0.4-0.3-10.5-10.2-24.8-16.5-40.6-16.5-15.8,0-30.1,6.4-40.6,16.7-0.1,0.1-0.2,0.1-0.4,0.2-0.1,0.1-0.1,0.2-0.2,0.3-10.4,10.4-16.8,24.9-16.8,40.8 0,32 26,58 58,58s58-26 58-58c0-15.9-6.4-30.3-16.8-40.8-0.1-0.1-0.1-0.3-0.2-0.4zm-41,91.1c-26.1,0-47.6-20.2-49.7-45.8h35.5c1.8,6.1 7.4,10.6 14.1,10.6s12.4-4.5 14.1-10.6h35.5c-1.9,25.6-23.4,45.8-49.5,45.8zm-6.5-49.9c0-3.6 2.9-6.5 6.5-6.5 3.6,0 6.5,2.9 6.5,6.5 0,3.6-2.9,6.5-6.5,6.5-3.6,0-6.5-2.9-6.5-6.5zm20.6-4.1c-0.8-2.9-2.5-5.4-4.7-7.2l11.1-25.3c0.9-2.1 0-4.5-2.1-5.4-2.1-0.9-4.5,0-5.4,2.1l-11.1,25.3c-0.6-0.1-1.3-0.1-1.9-0.1-6.7,0-12.3,4.5-14.1,10.6h-35.6c0.9-10.7 5.1-20.5 11.8-28.2l7.7,7.7c0.8,0.8 1.8,1.2 2.9,1.2 1,0 2.1-0.4 2.9-1.2 1.6-1.6 1.6-4.2 0-5.8l-7.7-7.7c7.7-6.5 17.4-10.7 28-11.6v10.9c0,2.3 1.8,4.1 4.1,4.1 2.3,0 4.1-1.8 4.1-4.1v-10.9c10.6,0.9 20.3,5.1 28,11.6l-7.6,7.7c-1.6,1.6-1.6,4.2 0,5.8 0.8,0.8 1.8,1.2 2.9,1.2 1,0 2.1-0.4 2.9-1.2l7.7-7.7c6.6,7.7 10.9,17.5 11.7,28.2h-35.6z"/>
  </g>
</svg>
