<?xml version='1.0' encoding='utf-8'?>
<svg version="1.1" xmlns="http://www.w3.org/2000/svg" viewBox="0 0 129 129" xmlns:xlink="http://www.w3.org/1999/xlink" enable-background="new 0 0 129 129">
  <g>
    <g>
      <path d="m121.7,45.1l-.2-.7c0,0-0.1-0.2-0.1-0.3l-12.6-35c-0.6-1.6-2.1-2.7-3.9-2.7h-80.8c-1.7,0-3.3,1.1-3.9,2.7l-12.5,34.8c-0.1,0.2-0.1,0.4-0.2,0.6l-.4,1.2c-0.1,0.3-0.2,0.6-0.2,1-0.4,1.5-0.6,2.8-0.6,4.2 0,7.6 4.8,14.1 11.6,16.5v51.2c0,2.3 1.8,4.1 4.1,4.1h86.7c2.3,0 4.1-1.8 4.1-4.1v-51.9c5.9-2.9 10-8.9 10-15.8 0-1.2-0.2-2.5-0.5-3.8-0.1-0.8-0.3-1.4-0.6-2zm-17.2,69.4h-78.4v-46.2c0.2,0 0.5-0.1 0.7-0.1 4.3-0.7 8-2.9 10.7-6.1 3.2,3.9 8.1,6.3 13.5,6.3 5.4,0 10.3-2.5 13.5-6.3 3.2,3.9 8.1,6.3 13.5,6.3s10.3-2.5 13.5-6.3c2.3,2.8 5.4,4.8 9,5.7 0.1,0 0.2,0.1 0.3,0.1 0.4,0.1 0.8,0.2 1.3,0.3 0.2,0 0.5,0.1 0.7,0.1 0.3,0 0.7,0.1 1,0.1 0.2,0 0.5,0.1 0.7,0.1v46zm3.2-54.6c-0.1,0-0.1,0 0,0-0.5,0.1-0.9,0.2-1.3,0.3-0.4,0.1-0.9,0.1-1.3,0.1-0.6,0-1.2-0.1-1.8-0.2-0.5-0.1-1-0.3-1.4-0.4-0.1,0-0.1,0-0.2-0.1-3.2-1.3-5.6-4.4-5.9-8 0-0.1 0-0.2 0-0.2 0-0.2 0-0.3 0-0.5 0-2.3-1.8-4.1-4.1-4.1s-4.1,1.8-4.1,4.1c0,0.2 0,0.4-0.1,0.6 0,0 0,0.1 0,0.1-0.3,3.7-2.7,6.7-5.9,8-0.1,0-0.1,0-0.2,0.1-0.5,0.2-1,0.3-1.5,0.4-0.6,0.1-1.2,0.2-1.8,0.2-0.6,0-1.2-0.1-1.8-0.2-0.5-0.1-1-0.3-1.4-0.4-0.1,0-0.1,0-0.2-0.1-3.2-1.3-5.6-4.4-5.9-8 0-0.1 0-0.1 0-0.2 0-0.2-0.1-0.3-0.1-0.5 0-2.3-1.8-4.1-4.1-4.1-2.3,0-4.1,1.8-4.1,4.1 0,0.2 0,0.4-0.1,0.6 0,0 0,0.1 0,0.1-0.3,3.7-2.7,6.7-5.9,8-0.1,0-0.1,0-0.2,0.1-0.5,0.2-1,0.3-1.5,0.4-0.6,0.1-1.2,0.2-1.8,0.2-0.6,0-1.2-0.1-1.8-0.2-0.5-0.1-1-0.3-1.5-0.4-0.1,0-0.1,0-0.2-0.1-3.2-1.3-5.6-4.4-5.9-8 0-0.1 0-0.2 0-0.2 0-0.2 0-0.3 0-0.5 0-2.3-1.8-4.1-4.1-4.1s-4.1,1.8-4.1,4.1c0,0.2 0,0.4-0.1,0.6 0,0 0,0.1 0,0.1-0.3,3.7-2.7,6.7-5.9,8-0.1,0-0.1,0-0.2,0.1-0.5,0.2-0.9,0.3-1.4,0.4-0.6,0.1-1.2,0.2-1.8,0.2-0.3,0-0.7-0.1-1-0.1-0.1,0-0.2,0-0.4-0.1-0.1,0-0.2,0-0.3,0-4.4-0.8-7.8-4.6-7.8-9.3 0-0.8 0.1-1.6 0.4-2.6 0-0.1 0.1-0.3 0.1-0.4l12-33.3h75l11.7,32.5c0,0 0.1,0.2 0.1,0.3l.2,.6c0,0.1 0.1,0.3 0.1,0.4 0.3,1 0.4,1.8 0.4,2.6 0,4.2-2.9,7.8-6.8,9z"/>
    </g>
  </g>
</svg>
