<?xml version='1.0' encoding='utf-8'?>
<svg version="1.1" xmlns="http://www.w3.org/2000/svg" viewBox="0 0 129 129" xmlns:xlink="http://www.w3.org/1999/xlink" enable-background="new 0 0 129 129">
  <g>
    <g>
      <path d="m37.5,95.6h54c17.1,0 31.1-13.9 31.1-31.1s-13.9-31.1-31.1-31.1h-54c-17.1,0-31.1,13.9-31.1,31.1s14,31.1 31.1,31.1zm0-54h54c12.6,0 22.9,10.3 22.9,22.9s-10.3,22.9-22.9,22.9h-54c-12.6,0-22.9-10.3-22.9-22.9s10.3-22.9 22.9-22.9z"/>
      <path d="m37.5,81.8c9.5,0 17.3-7.8 17.3-17.3 0-9.5-7.8-17.3-17.3-17.3-9.5,0-17.3,7.8-17.3,17.3 0,9.5 7.8,17.3 17.3,17.3zm0-26.4c5,0 9.1,4.1 9.1,9.1 0,5-4.1,9.1-9.1,9.1-5,0-9.1-4.1-9.1-9.1 0-5 4.1-9.1 9.1-9.1z"/>
    </g>
  </g>
</svg>
