<?xml version='1.0' encoding='utf-8'?>
<svg version="1.1" xmlns="http://www.w3.org/2000/svg" viewBox="0 0 129 129" xmlns:xlink="http://www.w3.org/1999/xlink" enable-background="new 0 0 129 129">
  <g>
    <g>
      <path d="m121.3,66.4l-58.7-58.7c-0.9-0.9-2.2-1.3-3.4-1.2l-44,5c-1.9,0.2-3.5,1.7-3.7,3.7l-5,44c-0.1,1.3 0.3,2.5 1.2,3.4l58.7,58.7c0.8,0.8 1.9,1.2 3,1.2 1.1,0 2.1-0.4 3-1.2l49-49c0.8-0.8 1.2-1.8 1.2-3-0.1-1-0.5-2.1-1.3-2.9zm-106.2-8.3l4.4-38.6 38.6-4.4 39.9,39.9-43,43-39.9-39.9zm54.3,54.3l-8.4-8.4 43-43 8.4,8.4-43,43z"/>
      <path d="m54.7,32.2c-3-3-7-4.7-11.3-4.7s-8.2,1.7-11.3,4.7c-6.2,6.2-6.2,16.3 0,22.5 3,3 7,4.7 11.3,4.7s8.2-1.7 11.3-4.7c3-3 4.7-7 4.7-11.3-7.10543e-15-4.2-1.7-8.2-4.7-11.2zm-5.9,16.6c-2.8,2.8-7.8,2.8-10.7,0-2.9-2.9-2.9-7.7 0-10.7 1.4-1.4 3.3-2.2 5.3-2.2s3.9,0.8 5.3,2.2c1.4,1.4 2.2,3.3 2.2,5.3 0.1,2.1-0.7,3.9-2.1,5.4z"/>
    </g>
  </g>
</svg>
