<?xml version='1.0' encoding='utf-8'?>
<svg version="1.1" xmlns="http://www.w3.org/2000/svg" viewBox="0 0 129 129" xmlns:xlink="http://www.w3.org/1999/xlink" enable-background="new 0 0 129 129">
  <g>
    <path d="m96.6,26.8h-86.1c-2.2,0-4.1,1.8-4.1,4.1v67.2c0,2.2 1.8,4.1 4.1,4.1h86.1c2.2,0 4.1-1.8 4.1-4.1v-19.4l14.9,14.9c0.8,0.8 1.8,1.2 2.9,1.2 0.5,0 1.1-0.1 1.6-0.3 1.5-0.6 2.5-2.1 2.5-3.8v-52.5c0-1.6-1-3.1-2.5-3.8-1.5-0.6-3.3-0.3-4.4,0.9l-14.9,14.9v-19.3c-0.1-2.3-1.9-4.1-4.2-4.1zm-4.1,33.3v8.8 25.2h-78v-59.2h78v25.2zm21.9-12v32.9l-13.7-13.7v-5.4l13.7-13.8z"/>
  </g>
</svg>
