<?xml version='1.0' encoding='utf-8'?>
<svg version="1.1" xmlns="http://www.w3.org/2000/svg" viewBox="0 0 129 129" xmlns:xlink="http://www.w3.org/1999/xlink" enable-background="new 0 0 129 129">
  <g>
    <g>
      <path d="m68.3,85.6c15.3,0 27.7-12.5 27.7-27.8v-2.7-20.9c0-15.3-12.4-27.7-27.7-27.7-15.3,0-27.7,12.4-27.7,27.7v20.9 2.7c0,15.3 12.4,27.8 27.7,27.8zm-19.5-51.4c0-10.8 8.8-19.6 19.6-19.6 10.8,0 19.6,8.8 19.6,19.6v20.9c0,10.8-8.8,19.6-19.6,19.6-10.8,0-19.6-8.8-19.6-19.6v-20.9z"/>
      <path d="m108,57.8c0-2.3-1.8-4.1-4.1-4.1s-4.1,1.8-4.1,4.1c0,17.4-14.1,31.5-31.5,31.5s-31.5-14.1-31.5-31.5c0-2.3-1.8-4.1-4.1-4.1s-4.1,1.8-4.1,4.1c0,20.5 15.6,37.4 35.6,39.5v17.1h-22.9c-2.3,0-4.1,1.8-4.1,4.1 0,2.3 1.8,4.1 4.1,4.1h52.3c2.3,0 4.1-1.8 4.1-4.1 0-2.3-1.8-4.1-4.1-4.1h-21.2v-17.1c20-2.1 35.6-19 35.6-39.5z"/>
    </g>
  </g>
</svg>
