<?xml version='1.0' encoding='utf-8'?>
<svg version="1.1" xmlns="http://www.w3.org/2000/svg" viewBox="0 0 129 129" xmlns:xlink="http://www.w3.org/1999/xlink" enable-background="new 0 0 129 129">
  <g>
    <g>
      <path d="m10.5,95.6h27c2.3,0 4.1-1.8 4.1-4.1v-1.4l47.6,31.7c0.7,0.5 1.5,0.7 2.3,0.7 0.7,0 1.3-0.2 1.9-0.5 1.3-0.7 2.2-2.1 2.2-3.6v-107.9c0-1.5-0.8-2.9-2.2-3.6-1.3-0.7-2.9-0.6-4.2,0.2l-47.6,31.8v-1.4c0-2.3-1.8-4.1-4.1-4.1h-27c-2.3,0-4.1,1.8-4.1,4.1v54c0,2.2 1.9,4.1 4.1,4.1zm31.1-46.9l45.8-30.5v92.7l-45.8-30.6v-31.6zm-27-7.1h18.8v4.9 36 4.9h-18.8v-45.8z"/>
      <path d="m118.5,33.4c-2.3,0-4.1,1.8-4.1,4.1v54c0,2.3 1.8,4.1 4.1,4.1 2.3,0 4.1-1.8 4.1-4.1v-54c0-2.2-1.9-4.1-4.1-4.1z"/>
    </g>
  </g>
</svg>
