<?xml version='1.0' encoding='utf-8'?>
<svg version="1.1" xmlns="http://www.w3.org/2000/svg" viewBox="0 0 129 129" xmlns:xlink="http://www.w3.org/1999/xlink" enable-background="new 0 0 129 129">
  <g>
    <g>
      <path d="m26.6,118.5c0,2.3 1.8,4.1 4.1,4.1h67.6c2.3,0 4.1-1.8 4.1-4.1v-29.5c4.6-7.1 7.3-15.5 7.3-24.5 0-9-2.7-17.4-7.3-24.5v-29.5c0-2.3-1.8-4.1-4.1-4.1h-67.6c-2.3,0-4.1,1.8-4.1,4.1v29.5c-4.6,7.1-7.3,15.5-7.3,24.5 0,9 2.7,17.4 7.3,24.5v29.5zm67.6-4.1h-59.4v-16c7.9,7 18.3,11.2 29.7,11.2 11.4,0 21.8-4.3 29.7-11.2v16zm-59.4-99.8h59.4v16c-7.9-7-18.3-11.2-29.7-11.2-11.4,0-21.8,4.3-29.7,11.2v-16zm29.7,12.9c20.4,0 37,16.6 37,37 0,20.4-16.6,37-37,37-20.4,0-37-16.6-37-37 0-20.4 16.6-37 37-37z"/>
      <path d="m64.5,68.6h14.7c2.3,0 4.1-1.8 4.1-4.1 0-2.3-1.8-4.1-4.1-4.1h-10.6v-17.2c0-2.3-1.8-4.1-4.1-4.1-2.3,0-4.1,1.8-4.1,4.1v21.3c0,2.3 1.8,4.1 4.1,4.1z"/>
    </g>
  </g>
</svg>
