<?xml version='1.0' encoding='utf-8'?>
<svg version="1.1" xmlns="http://www.w3.org/2000/svg" viewBox="0 0 129 129" xmlns:xlink="http://www.w3.org/1999/xlink" enable-background="new 0 0 129 129">
  <g>
    <g>
      <path d="m51.6,6.5c-24.9,0-45.1,20.2-45.1,45.1 0,24.9 20.2,45.1 45.1,45.1 11,0 21-3.9 28.9-10.5l35.1,35.1c0.8,0.8 1.8,1.2 2.9,1.2 1,0 2.1-0.4 2.9-1.2 1.6-1.6 1.6-4.2 0-5.8l-35.1-35c6.5-7.8 10.5-17.9 10.5-28.9-0.1-24.9-20.3-45.1-45.2-45.1zm0,82.1c-20.4,0-37-16.6-37-37 0-20.4 16.6-37 37-37 20.4,0 37,16.6 37,37 0,20.4-16.6,37-37,37z"/>
      <path d="m78.3,47.5h-53.4c-2.3,0-4.1,1.8-4.1,4.1s1.8,4.1 4.1,4.1h53.4c2.3,0 4.1-1.8 4.1-4.1s-1.8-4.1-4.1-4.1z"/>
    </g>
  </g>
</svg>
